<?xml version="1.0" encoding="UTF-8" standalone="no"?>
<!-- Created with Inkscape (http://www.inkscape.org/) -->

<svg
   xmlns:dc="http://purl.org/dc/elements/1.1/"
   xmlns:cc="http://creativecommons.org/ns#"
   xmlns:rdf="http://www.w3.org/1999/02/22-rdf-syntax-ns#"
   xmlns:svg="http://www.w3.org/2000/svg"
   xmlns="http://www.w3.org/2000/svg"
   xmlns:sodipodi="http://sodipodi.sourceforge.net/DTD/sodipodi-0.dtd"
   xmlns:inkscape="http://www.inkscape.org/namespaces/inkscape"
   width="31"
   height="30.999996"
   id="svg5378"
   version="1.1"
   inkscape:version="0.47 r22583"
   sodipodi:docname="key-runstop.svg">
  <sodipodi:namedview
     id="base"
     pagecolor="#ffffff"
     bordercolor="#666666"
     borderopacity="1.0"
     inkscape:pageopacity="0.0"
     inkscape:pageshadow="2"
     inkscape:zoom="1.4"
     inkscape:cx="45.296906"
     inkscape:cy="34.773776"
     inkscape:document-units="px"
     inkscape:current-layer="layer1"
     showgrid="true"
     inkscape:snap-grids="true"
     inkscape:window-width="1680"
     inkscape:window-height="893"
     inkscape:window-x="0"
     inkscape:window-y="25"
     inkscape:window-maximized="1">
    <inkscape:grid
       type="xygrid"
       id="grid5388"
       empspacing="5"
       visible="true"
       enabled="true"
       snapvisiblegridlinesonly="true" />
  </sodipodi:namedview>
  <metadata
     id="metadata5383">
    <rdf:RDF>
      <cc:Work
         rdf:about="">
        <dc:format>image/svg+xml</dc:format>
        <dc:type
           rdf:resource="http://purl.org/dc/dcmitype/StillImage" />
        <dc:title></dc:title>
      </cc:Work>
    </rdf:RDF>
  </metadata>
  <g
     inkscape:label="Ebene 1"
     inkscape:groupmode="layer"
     id="layer1"
     transform="translate(-104.5,-76.862183)">
    <path
       style="fill:none;stroke:#000000;stroke-width:1px;stroke-linecap:butt;stroke-linejoin:round;stroke-opacity:1"
       d="m 105,82.362183 5,-5 20,0 5,5 0,19.999997 -5,5 -20,0 -5,-5 0,-19.999997 z"
       id="path5390" />
    <g
       style="font-size:12px;font-style:normal;font-variant:normal;font-weight:normal;font-stretch:normal;fill:#000000;fill-opacity:1;stroke:none;font-family:DejaVu Sans Mono;-inkscape-font-specification:DejaVu Sans Mono"
       id="text5917">
      <path
         d="m 120.45117,100.00281 c -0.0547,0 -0.13282,0.004 -0.23437,0.0117 -0.10157,0.008 -0.1836,0.0117 -0.2461,0.0117 -1.95313,-1e-5 -3.41406,-0.750004 -4.38281,-2.250005 -0.96094,-1.499996 -1.44141,-3.773432 -1.44141,-6.820312 0,-3.054676 0.48047,-5.332018 1.44141,-6.832032 0.96875,-1.499983 2.4375,-2.249982 4.40625,-2.25 1.97655,1.8e-5 3.4453,0.750017 4.40625,2.25 0.96874,1.500014 1.45311,3.777356 1.45313,6.832032 -2e-5,2.296881 -0.26955,4.148442 -0.8086,5.554687 -0.53126,1.398439 -1.33985,2.378907 -2.42578,2.941406 l 2.34375,2.226564 -1.76953,1.17187 -2.74219,-2.84765 m 2.92969,-9.046877 c -1e-5,-2.570302 -0.26564,-4.406237 -0.79688,-5.507813 -0.52344,-1.101547 -1.38672,-1.652328 -2.58984,-1.652344 -1.19532,1.6e-5 -2.0586,0.550797 -2.58984,1.652344 -0.52344,1.101576 -0.78516,2.937511 -0.78516,5.507813 0,2.562506 0.26172,4.394535 0.78516,5.496093 0.53124,1.101565 1.39452,1.652346 2.58984,1.652344 1.20312,2e-6 2.0664,-0.546873 2.58984,-1.640625 0.53124,-1.101558 0.79687,-2.937494 0.79688,-5.507812"
         style="font-size:24px"
         id="path5922" />
    </g>
  </g>
</svg>
