M48
INCH,TZ
T1C0.012
T2C0.020
T3C0.028
T4C0.039
T5C0.047
T6C0.118
%
G05
T1
X4.720Y-5.200
X4.744Y-4.664
X4.744Y-4.864
X4.848Y-5.200
X4.880Y-4.304
X4.880Y-4.472
X4.880Y-4.664
X5.008Y-5.280
X5.050Y-5.300
X5.062Y-4.348
X5.092Y-4.328
X5.128Y-4.472
X5.136Y-4.792
X5.168Y-4.144
X5.176Y-4.480
X5.176Y-4.792
X5.184Y-4.608
X5.192Y-4.648
X5.240Y-4.648
X5.248Y-4.760
X5.248Y-4.800
X5.264Y-4.344
X5.272Y-4.496
X5.288Y-4.808
X5.288Y-4.936
X5.296Y-4.464
X5.304Y-4.336
X5.344Y-4.056
X5.392Y-4.016
X5.408Y-4.328
X5.416Y-4.176
X5.448Y-4.336
X5.488Y-4.328
X5.520Y-4.928
X5.536Y-4.312
X5.560Y-4.936
X5.568Y-4.272
X5.600Y-4.952
X5.640Y-4.936
X5.680Y-4.952
X5.712Y-4.936
X5.720Y-4.640
X5.720Y-5.080
X5.744Y-5.160
X5.760Y-4.624
X5.816Y-5.160
X5.840Y-4.592
X5.880Y-4.944
X5.928Y-4.992
X5.928Y-5.088
X5.960Y-4.580
X5.960Y-4.660
X5.960Y-5.072
X5.968Y-4.016
X5.992Y-5.088
X6.024Y-5.072
X6.040Y-4.824
X6.056Y-5.088
X6.088Y-5.072
X6.090Y-4.900
X6.120Y-5.088
X6.192Y-5.168
X6.200Y-4.008
X6.224Y-5.192
X6.240Y-4.104
X6.240Y-4.408
X6.248Y-4.216
X6.256Y-5.208
X6.264Y-4.072
X6.288Y-4.216
X6.288Y-5.224
X6.328Y-4.200
X6.330Y-4.900
X6.344Y-4.528
X6.360Y-4.288
X6.368Y-4.248
X6.390Y-4.430
X6.392Y-4.496
X6.416Y-4.288
X6.432Y-4.896
X6.440Y-4.568
X6.456Y-4.672
X6.460Y-4.790
X6.470Y-5.200
X6.512Y-4.376
X6.584Y-4.552
X6.648Y-4.568
X6.656Y-4.664
X6.688Y-4.568
X6.696Y-5.016
X6.704Y-4.000
X6.720Y-4.664
X6.728Y-5.040
X6.760Y-5.016
X6.784Y-4.824
X6.792Y-5.040
X6.792Y-5.216
X6.808Y-4.536
X6.816Y-4.208
X6.832Y-4.992
X6.848Y-4.032
X6.848Y-4.720
X6.856Y-4.496
X6.904Y-4.760
T2
X4.696Y-4.264
X4.744Y-5.280
X4.864Y-5.040
X4.944Y-4.504
X4.944Y-4.680
X6.850Y-5.300
X6.900Y-5.250
T3
X6.555Y-4.264
X6.605Y-4.264
X6.655Y-4.264
X6.705Y-4.264
X6.755Y-4.264
X6.805Y-4.264
T4
X4.861Y-3.850
X5.039Y-3.850
X5.361Y-3.850
X5.539Y-3.850
X6.061Y-3.850
X6.239Y-3.850
X6.561Y-3.850
X6.739Y-3.850
T5
X4.812Y-3.948
X5.088Y-3.948
X5.312Y-3.948
X5.588Y-3.948
X6.012Y-3.948
X6.288Y-3.948
X6.512Y-3.948
X6.788Y-3.948
T6
X5.800Y-3.875
T0
M30
