G04 (created by PCBNEW-RS274X (20091028 SVN-R2058)) date Tue 10 Nov 2009 22:53:44 CET*
G01*
G70*
G90*
%MOIN*%
G04 Gerber Fmt 3.4, Leading zero omitted, Abs format*
%FSLAX34Y34*%
G04 APERTURE LIST*
%ADD10C,0.001000*%
%ADD11C,0.008000*%
%ADD12C,0.047200*%
%ADD13R,0.070900X0.062900*%
%ADD14R,0.030000X0.020000*%
%ADD15R,0.055000X0.035000*%
%ADD16R,0.035000X0.055000*%
%ADD17R,0.040000X0.040000*%
%ADD18C,0.040000*%
%ADD19O,0.078700X0.059100*%
%ADD20C,0.080000*%
%ADD21R,0.015700X0.035400*%
%ADD22O,0.060000X0.250000*%
%ADD23R,0.060000X0.010000*%
%ADD24R,0.010000X0.060000*%
%ADD25R,0.011000X0.060000*%
%ADD26C,0.027600*%
%ADD27C,0.045000*%
%ADD28C,0.050000*%
%ADD29C,0.010000*%
%ADD30C,0.017000*%
%ADD31C,0.040000*%
%ADD32C,0.025000*%
G04 APERTURE END LIST*
G54D10*
G54D11*
X47702Y-44809D02*
X48202Y-44809D01*
X47702Y-44975D02*
X47702Y-44642D01*
X47702Y-44404D02*
X47726Y-44451D01*
X47774Y-44499D01*
X47821Y-44523D01*
X47893Y-44547D01*
X48012Y-44547D01*
X48083Y-44523D01*
X48131Y-44499D01*
X48179Y-44451D01*
X48202Y-44404D01*
X48202Y-44308D01*
X48179Y-44261D01*
X48131Y-44213D01*
X48083Y-44189D01*
X48012Y-44166D01*
X47893Y-44166D01*
X47821Y-44189D01*
X47774Y-44213D01*
X47726Y-44261D01*
X47702Y-44308D01*
X47702Y-44404D01*
X47702Y-43999D02*
X48202Y-43999D01*
X47702Y-43999D02*
X47702Y-43784D01*
X47726Y-43713D01*
X47750Y-43689D01*
X47798Y-43665D01*
X47869Y-43665D01*
X47917Y-43689D01*
X47940Y-43713D01*
X47964Y-43784D01*
X47964Y-43999D01*
X47702Y-43118D02*
X48202Y-43118D01*
X47702Y-43118D02*
X47702Y-42808D01*
X47940Y-43118D02*
X47940Y-42927D01*
X48202Y-43118D02*
X48202Y-42808D01*
X47702Y-42666D02*
X48202Y-42666D01*
X47702Y-42666D02*
X47702Y-42356D01*
X47940Y-42666D02*
X47940Y-42475D01*
X47821Y-42237D02*
X47798Y-42237D01*
X47750Y-42213D01*
X47726Y-42189D01*
X47702Y-42142D01*
X47702Y-42046D01*
X47726Y-41999D01*
X47750Y-41975D01*
X47798Y-41951D01*
X47845Y-41951D01*
X47893Y-41975D01*
X47964Y-42022D01*
X48202Y-42261D01*
X48202Y-41927D01*
X47988Y-41761D02*
X47988Y-41332D01*
X47798Y-41094D02*
X47774Y-41047D01*
X47702Y-40975D01*
X48202Y-40975D01*
G54D12*
X66160Y-43760D03*
X67440Y-43760D03*
G54D13*
X64080Y-40321D03*
X64080Y-41439D03*
G54D14*
X47820Y-47305D03*
X47820Y-48055D03*
X48820Y-47305D03*
X47820Y-47680D03*
X48820Y-48055D03*
G54D15*
X67760Y-45705D03*
X67760Y-46455D03*
X52400Y-40665D03*
X52400Y-41415D03*
G54D16*
X48695Y-49440D03*
X47945Y-49440D03*
X48695Y-45920D03*
X47945Y-45920D03*
G54D17*
X68050Y-42640D03*
G54D18*
X67550Y-42640D03*
X67050Y-42640D03*
X66550Y-42640D03*
X66050Y-42640D03*
X65550Y-42640D03*
G54D19*
X48614Y-38500D03*
X50386Y-38500D03*
G54D20*
X50878Y-39484D03*
X48122Y-39484D03*
G54D19*
X53614Y-38500D03*
X55386Y-38500D03*
G54D20*
X55878Y-39484D03*
X53122Y-39484D03*
G54D19*
X60614Y-38500D03*
X62386Y-38500D03*
G54D20*
X62878Y-39484D03*
X60122Y-39484D03*
G54D19*
X65614Y-38500D03*
X67386Y-38500D03*
G54D20*
X67878Y-39484D03*
X65122Y-39484D03*
G54D21*
X65628Y-51535D03*
X65943Y-51535D03*
X66572Y-51535D03*
X66257Y-51535D03*
X66257Y-50865D03*
X66572Y-50865D03*
X65943Y-50865D03*
X65628Y-50865D03*
X63328Y-51535D03*
X63643Y-51535D03*
X64272Y-51535D03*
X63957Y-51535D03*
X63957Y-50865D03*
X64272Y-50865D03*
X63643Y-50865D03*
X63328Y-50865D03*
G54D22*
X47500Y-54750D03*
X48500Y-54750D03*
X49500Y-54750D03*
X50500Y-54750D03*
X51500Y-54750D03*
X52500Y-54750D03*
X53500Y-54750D03*
X54500Y-54750D03*
X55500Y-54750D03*
X56500Y-54750D03*
X57500Y-54750D03*
X58500Y-54750D03*
X59500Y-54750D03*
X60500Y-54750D03*
X61500Y-54750D03*
X62500Y-54750D03*
X63500Y-54750D03*
X64500Y-54750D03*
X65500Y-54750D03*
X66500Y-54750D03*
X67500Y-54750D03*
X68500Y-54750D03*
G54D12*
X50480Y-51680D03*
G54D23*
X59050Y-48960D03*
X59050Y-44240D03*
X59050Y-44440D03*
X59050Y-44630D03*
X59050Y-44830D03*
X59050Y-45030D03*
X59050Y-45220D03*
X59050Y-45420D03*
X59050Y-45620D03*
X59050Y-45810D03*
X59050Y-46010D03*
X59050Y-46210D03*
X59050Y-46410D03*
X59050Y-46600D03*
X59050Y-46800D03*
X59050Y-47000D03*
X59050Y-47190D03*
X59050Y-47390D03*
X59050Y-47590D03*
X59050Y-47780D03*
X59050Y-47980D03*
X59050Y-48180D03*
X59050Y-48370D03*
X59050Y-48570D03*
X59050Y-48770D03*
G54D24*
X59740Y-43550D03*
X64460Y-43550D03*
X64260Y-43550D03*
X64070Y-43550D03*
X63870Y-43550D03*
X63670Y-43550D03*
X63480Y-43550D03*
X63280Y-43550D03*
X63080Y-43550D03*
X62890Y-43550D03*
X62690Y-43550D03*
X62490Y-43550D03*
X62290Y-43550D03*
X62100Y-43550D03*
X61900Y-43550D03*
X61700Y-43550D03*
X61510Y-43550D03*
X61310Y-43550D03*
X61110Y-43550D03*
X60920Y-43550D03*
X60720Y-43550D03*
X60520Y-43550D03*
X60330Y-43550D03*
X60130Y-43550D03*
X59930Y-43550D03*
X59740Y-49650D03*
X59940Y-49650D03*
X60130Y-49650D03*
X60330Y-49650D03*
X60530Y-49650D03*
X60720Y-49650D03*
X60920Y-49650D03*
X61120Y-49650D03*
X61310Y-49650D03*
X61510Y-49650D03*
X61710Y-49650D03*
X61910Y-49650D03*
X62100Y-49650D03*
X62300Y-49650D03*
X62500Y-49650D03*
X62690Y-49650D03*
X62890Y-49650D03*
X63090Y-49650D03*
X63280Y-49650D03*
X63480Y-49650D03*
X63680Y-49650D03*
X63870Y-49650D03*
X64070Y-49650D03*
X64270Y-49650D03*
X64460Y-49650D03*
G54D23*
X65150Y-48960D03*
X65150Y-48760D03*
X65150Y-48570D03*
X65150Y-48370D03*
X65150Y-48170D03*
X65150Y-47980D03*
X65150Y-47780D03*
X65150Y-47580D03*
X65150Y-47390D03*
X65150Y-47190D03*
X65150Y-46990D03*
X65150Y-46790D03*
X65150Y-46600D03*
X65150Y-46400D03*
X65150Y-46200D03*
X65150Y-46010D03*
X65150Y-45810D03*
X65150Y-45610D03*
X65150Y-45420D03*
X65150Y-45220D03*
X65150Y-45020D03*
X65150Y-44830D03*
X65150Y-44630D03*
X65150Y-44430D03*
X65150Y-44240D03*
G54D25*
X50507Y-42530D03*
X50704Y-42530D03*
X50901Y-42530D03*
X51098Y-42530D03*
X51295Y-42530D03*
X51491Y-42530D03*
X51688Y-42530D03*
X51885Y-42530D03*
X52082Y-42530D03*
X52279Y-42530D03*
X52476Y-42530D03*
X52673Y-42530D03*
X52871Y-42530D03*
X53066Y-42530D03*
X53264Y-42530D03*
X53460Y-42530D03*
X53658Y-42530D03*
X53854Y-42530D03*
X54052Y-42530D03*
X54248Y-42530D03*
X54445Y-42530D03*
X54641Y-42530D03*
X54839Y-42530D03*
X55035Y-42530D03*
X50508Y-50220D03*
X51098Y-50220D03*
X50901Y-50220D03*
X50704Y-50220D03*
X51295Y-50220D03*
X51492Y-50220D03*
X51689Y-50220D03*
X51886Y-50220D03*
X52083Y-50220D03*
X52279Y-50220D03*
X52476Y-50220D03*
X52673Y-50220D03*
X52870Y-50220D03*
X53067Y-50220D03*
X53264Y-50220D03*
X53461Y-50220D03*
X53657Y-50220D03*
X53854Y-50220D03*
X54051Y-50220D03*
X54248Y-50220D03*
X54445Y-50220D03*
X54642Y-50220D03*
X54839Y-50220D03*
X55035Y-50220D03*
G54D26*
X60900Y-49000D03*
X64560Y-46720D03*
X68480Y-47200D03*
G54D18*
X49440Y-46800D03*
X49440Y-45040D03*
G54D26*
X66560Y-46640D03*
X63900Y-44300D03*
G54D18*
X51680Y-41440D03*
G54D26*
X59600Y-46600D03*
X67920Y-50400D03*
X67600Y-50160D03*
X60880Y-50720D03*
X60560Y-50880D03*
X60240Y-50720D03*
X59920Y-50880D03*
X59600Y-50720D03*
X59280Y-50880D03*
X67280Y-50400D03*
X66960Y-50160D03*
X64700Y-52000D03*
X62880Y-52240D03*
X62560Y-52080D03*
X62240Y-51920D03*
X61920Y-51680D03*
X61200Y-50880D03*
X53920Y-40160D03*
X62400Y-41040D03*
X62640Y-40720D03*
X59680Y-40160D03*
X67200Y-46640D03*
X67040Y-40000D03*
X58160Y-51600D03*
X50920Y-43280D03*
X63600Y-42880D03*
X55360Y-43120D03*
X52480Y-48000D03*
X52480Y-47600D03*
X51760Y-47920D03*
X51360Y-47920D03*
X52400Y-46480D03*
X51920Y-46480D03*
X51840Y-46080D03*
X50620Y-43480D03*
X57200Y-46400D03*
X56400Y-49360D03*
X56800Y-49520D03*
X56000Y-49520D03*
X55600Y-49360D03*
X55200Y-49280D03*
X58400Y-45920D03*
X57600Y-46240D03*
X52880Y-48080D03*
X54480Y-43360D03*
X63280Y-42000D03*
X54080Y-43280D03*
X62880Y-42160D03*
X53040Y-43360D03*
X54160Y-41760D03*
X62480Y-42160D03*
X52640Y-43440D03*
X52960Y-44640D03*
X52720Y-44960D03*
X51760Y-44800D03*
X51280Y-44720D03*
X52880Y-49360D03*
X57120Y-49360D03*
X63300Y-49000D03*
X62400Y-44080D03*
X53440Y-40560D03*
X68160Y-42080D03*
X48800Y-43040D03*
X48800Y-44720D03*
X47440Y-46640D03*
X67920Y-52160D03*
X68320Y-49920D03*
X47200Y-52000D03*
X47440Y-48640D03*
X48800Y-46640D03*
X48480Y-52000D03*
G54D18*
X46960Y-42640D03*
X69040Y-47600D03*
G54D26*
X68560Y-44960D03*
X68080Y-45360D03*
X68480Y-40320D03*
G54D27*
X48640Y-50400D03*
G54D28*
X68500Y-53000D03*
G54D27*
X69000Y-52500D03*
G54D26*
X64600Y-47900D03*
X59600Y-45800D03*
G54D27*
X47440Y-52800D03*
G54D26*
X65840Y-45520D03*
X67840Y-48240D03*
X66480Y-45680D03*
X59280Y-49920D03*
X57200Y-50800D03*
X58800Y-49440D03*
X50080Y-52800D03*
X57440Y-51600D03*
X66880Y-45680D03*
X64400Y-45680D03*
X63440Y-45280D03*
X55680Y-42720D03*
X63680Y-42480D03*
X50500Y-53000D03*
X60400Y-48240D03*
X64320Y-48960D03*
X65120Y-43760D03*
X63920Y-44960D03*
X54880Y-43280D03*
X64160Y-42880D03*
G54D18*
X62000Y-40080D03*
G54D29*
X60530Y-49650D02*
X60530Y-49150D01*
X60680Y-49000D02*
X60900Y-49000D01*
X60530Y-49150D02*
X60680Y-49000D01*
X65150Y-48960D02*
X64800Y-48960D01*
X64320Y-46960D02*
X64560Y-46720D01*
X64320Y-48480D02*
X64320Y-46960D01*
X64800Y-48960D02*
X64320Y-48480D01*
X65150Y-46600D02*
X64680Y-46600D01*
X64680Y-46600D02*
X64560Y-46720D01*
G54D30*
X66560Y-46640D02*
X66880Y-46960D01*
X66880Y-46960D02*
X67520Y-46960D01*
G54D31*
X48695Y-45920D02*
X49440Y-45920D01*
G54D30*
X48820Y-48055D02*
X49305Y-48055D01*
G54D31*
X49440Y-47920D02*
X49360Y-48000D01*
X49440Y-47920D02*
X49440Y-46800D01*
G54D30*
X49305Y-48055D02*
X49360Y-48000D01*
X68215Y-46455D02*
X68480Y-46720D01*
X68480Y-46720D02*
X68480Y-47200D01*
X68215Y-46455D02*
X67760Y-46455D01*
G54D31*
X49440Y-45040D02*
X49440Y-45920D01*
X49440Y-45920D02*
X49440Y-46800D01*
G54D30*
X67760Y-46455D02*
X67760Y-46720D01*
X67760Y-46720D02*
X67520Y-46960D01*
G54D29*
X63280Y-43550D02*
X63280Y-43920D01*
X63280Y-43920D02*
X63660Y-44300D01*
X63660Y-44300D02*
X63900Y-44300D01*
X64460Y-43550D02*
X64460Y-43940D01*
X64460Y-43940D02*
X64100Y-44300D01*
X64100Y-44300D02*
X63900Y-44300D01*
X52673Y-42530D02*
X52673Y-42033D01*
X52400Y-41760D02*
X52400Y-41415D01*
X52673Y-42033D02*
X52400Y-41760D01*
G54D31*
X52400Y-41415D02*
X51705Y-41415D01*
X51705Y-41415D02*
X51680Y-41440D01*
G54D29*
X59050Y-48570D02*
X59430Y-48570D01*
X59600Y-48400D02*
X59600Y-46600D01*
X59430Y-48570D02*
X59600Y-48400D01*
G54D11*
X59050Y-46600D02*
X59600Y-46600D01*
G54D31*
X49140Y-53100D02*
X49200Y-53100D01*
X49200Y-53100D02*
X49500Y-53400D01*
X49500Y-52720D02*
X49500Y-52740D01*
X49500Y-52740D02*
X49140Y-53100D01*
X49500Y-53100D02*
X49140Y-53100D01*
X49140Y-53100D02*
X48740Y-53100D01*
X48500Y-53340D02*
X48740Y-53100D01*
X48500Y-53340D02*
X48500Y-54750D01*
X48695Y-49440D02*
X49280Y-49440D01*
X49280Y-49440D02*
X49500Y-49660D01*
X49500Y-49660D02*
X49500Y-52720D01*
X49500Y-52720D02*
X49500Y-53100D01*
X49500Y-53100D02*
X49500Y-53400D01*
G54D30*
X47820Y-48055D02*
X48320Y-48055D01*
X47820Y-47305D02*
X48265Y-47305D01*
G54D31*
X48695Y-48855D02*
X48320Y-48480D01*
X48320Y-48480D02*
X48320Y-48055D01*
X48320Y-48055D02*
X48320Y-47360D01*
X48695Y-48855D02*
X48695Y-49440D01*
G54D30*
X48265Y-47305D02*
X48320Y-47360D01*
G54D31*
X49500Y-53400D02*
X49500Y-54750D01*
G54D11*
X67920Y-50400D02*
X67920Y-49440D01*
X65150Y-47190D02*
X65670Y-47190D01*
X67920Y-49440D02*
X65670Y-47190D01*
X67600Y-50160D02*
X67600Y-49360D01*
X67600Y-49360D02*
X65630Y-47390D01*
X65150Y-47390D02*
X65630Y-47390D01*
X60880Y-50560D02*
X60880Y-50720D01*
X61120Y-50320D02*
X60880Y-50560D01*
X61120Y-50320D02*
X61120Y-49650D01*
X60560Y-50640D02*
X60560Y-50880D01*
X60920Y-50280D02*
X60560Y-50640D01*
X60920Y-49650D02*
X60920Y-50280D01*
X60720Y-50160D02*
X60720Y-49650D01*
X60240Y-50640D02*
X60720Y-50160D01*
X60240Y-50640D02*
X60240Y-50720D01*
X59920Y-50640D02*
X59920Y-50880D01*
X60330Y-50230D02*
X59920Y-50640D01*
X60330Y-49650D02*
X60330Y-50230D01*
X59600Y-50640D02*
X59600Y-50720D01*
X60130Y-50110D02*
X59600Y-50640D01*
X60130Y-49650D02*
X60130Y-50110D01*
X59940Y-49980D02*
X59940Y-49650D01*
X59940Y-49980D02*
X59280Y-50640D01*
X59280Y-50880D02*
X59280Y-50640D01*
X67280Y-49280D02*
X65580Y-47580D01*
X65580Y-47580D02*
X65150Y-47580D01*
X67280Y-50400D02*
X67280Y-49280D01*
X66960Y-50160D02*
X66960Y-49200D01*
X65540Y-47780D02*
X65150Y-47780D01*
X66960Y-49200D02*
X65540Y-47780D01*
X64700Y-52000D02*
X64700Y-50300D01*
X64700Y-50300D02*
X64460Y-50060D01*
X64460Y-50060D02*
X64460Y-49650D01*
X62890Y-49650D02*
X62890Y-52230D01*
X62890Y-52230D02*
X62880Y-52240D01*
X62690Y-49650D02*
X62690Y-51950D01*
X62690Y-51950D02*
X62560Y-52080D01*
X62500Y-51660D02*
X62500Y-49650D01*
X62500Y-51660D02*
X62240Y-51920D01*
X62300Y-51300D02*
X62300Y-49650D01*
X62300Y-51300D02*
X61920Y-51680D01*
X61310Y-50490D02*
X61308Y-50494D01*
X61310Y-49650D02*
X61310Y-50490D01*
X61308Y-50494D02*
X61308Y-50612D01*
X61308Y-50612D02*
X61200Y-50880D01*
X62400Y-41040D02*
X62240Y-40880D01*
X62240Y-40880D02*
X54640Y-40880D01*
X54640Y-40880D02*
X53920Y-40160D01*
X56100Y-38500D02*
X55386Y-38500D01*
X56560Y-38960D02*
X56100Y-38500D01*
X56560Y-39360D02*
X56560Y-38960D01*
X57920Y-40720D02*
X56560Y-39360D01*
X62640Y-40720D02*
X57920Y-40720D01*
G54D30*
X61120Y-40160D02*
X62386Y-38894D01*
X59680Y-40160D02*
X61120Y-40160D01*
X62386Y-38894D02*
X62386Y-38500D01*
G54D11*
X67200Y-45040D02*
X68560Y-43680D01*
X67200Y-46640D02*
X67200Y-45040D01*
X67040Y-40000D02*
X68560Y-41520D01*
X68560Y-43680D02*
X68560Y-41520D01*
X65150Y-48170D02*
X65690Y-48170D01*
X65690Y-48170D02*
X66572Y-49052D01*
X66572Y-49052D02*
X66572Y-50865D01*
X65150Y-48370D02*
X65650Y-48370D01*
X65650Y-48370D02*
X66257Y-48977D01*
X66257Y-48977D02*
X66257Y-50865D01*
X65150Y-48570D02*
X65610Y-48570D01*
X65610Y-48570D02*
X65943Y-48903D01*
X65943Y-50865D02*
X65943Y-48903D01*
X65150Y-48760D02*
X65560Y-48760D01*
X65628Y-48828D02*
X65628Y-50865D01*
X65560Y-48760D02*
X65628Y-48828D01*
X64270Y-49650D02*
X64270Y-50863D01*
X64270Y-50863D02*
X64272Y-50865D01*
X63480Y-49650D02*
X63480Y-50080D01*
X63957Y-50557D02*
X63957Y-50865D01*
X63480Y-50080D02*
X63957Y-50557D01*
X63280Y-49650D02*
X63280Y-50180D01*
X63643Y-50543D02*
X63643Y-50865D01*
X63280Y-50180D02*
X63643Y-50543D01*
X63090Y-49650D02*
X63090Y-50290D01*
X63328Y-50528D02*
X63328Y-50865D01*
X63090Y-50290D02*
X63328Y-50528D01*
X58160Y-51600D02*
X57600Y-52160D01*
X57600Y-52160D02*
X53760Y-52160D01*
X53760Y-52160D02*
X52500Y-53420D01*
X52500Y-54750D02*
X52500Y-53420D01*
X51098Y-42530D02*
X51098Y-43002D01*
X51098Y-43002D02*
X50920Y-43280D01*
X60480Y-41840D02*
X58240Y-41840D01*
X60480Y-41840D02*
X61700Y-43060D01*
X61700Y-43060D02*
X61700Y-43550D01*
X58240Y-41840D02*
X54480Y-45600D01*
X50920Y-44840D02*
X50920Y-43280D01*
X50920Y-44840D02*
X51680Y-45600D01*
X51680Y-45600D02*
X54480Y-45600D01*
X55035Y-42530D02*
X55035Y-42955D01*
X55200Y-43120D02*
X55360Y-43120D01*
X55035Y-42955D02*
X55200Y-43120D01*
X63670Y-42950D02*
X63670Y-43550D01*
X63670Y-42950D02*
X63600Y-42880D01*
X59930Y-43550D02*
X59930Y-43210D01*
X58881Y-43120D02*
X58081Y-43920D01*
X59840Y-43120D02*
X58881Y-43120D01*
X59930Y-43210D02*
X59840Y-43120D01*
X51689Y-48800D02*
X51689Y-50220D01*
X52120Y-48360D02*
X52120Y-48369D01*
X52480Y-48000D02*
X52120Y-48360D01*
X51689Y-48800D02*
X52120Y-48369D01*
X52480Y-48000D02*
X52800Y-47680D01*
X52800Y-47680D02*
X54321Y-47680D01*
X54321Y-47680D02*
X58081Y-43920D01*
X60130Y-43550D02*
X60130Y-43170D01*
X52560Y-47520D02*
X54241Y-47520D01*
X54241Y-47520D02*
X58801Y-42960D01*
X52560Y-47520D02*
X52480Y-47600D01*
X59920Y-42960D02*
X58801Y-42960D01*
X60130Y-43170D02*
X59920Y-42960D01*
X51492Y-48588D02*
X51492Y-50220D01*
X51492Y-48588D02*
X52480Y-47600D01*
X58720Y-42800D02*
X60000Y-42800D01*
X51295Y-48385D02*
X51295Y-50220D01*
X51760Y-47920D02*
X51295Y-48385D01*
X60330Y-43550D02*
X60330Y-43130D01*
X60330Y-43130D02*
X60000Y-42800D01*
X51760Y-47920D02*
X52720Y-46960D01*
X52720Y-46960D02*
X54560Y-46960D01*
X54560Y-46960D02*
X58720Y-42800D01*
X58640Y-42640D02*
X60080Y-42640D01*
X51098Y-50220D02*
X51098Y-48182D01*
X51098Y-48182D02*
X51360Y-47920D01*
X60520Y-43550D02*
X60520Y-43080D01*
X60520Y-43080D02*
X60080Y-42640D01*
X52480Y-46800D02*
X51360Y-47920D01*
X52480Y-46800D02*
X54480Y-46800D01*
X58640Y-42640D02*
X54480Y-46800D01*
X58560Y-42480D02*
X60160Y-42480D01*
X60160Y-42480D02*
X60720Y-43040D01*
X60720Y-43040D02*
X60720Y-43550D01*
X52400Y-46480D02*
X54560Y-46480D01*
X50901Y-50220D02*
X50901Y-47979D01*
X50901Y-47979D02*
X52400Y-46480D01*
X58560Y-42480D02*
X54560Y-46480D01*
X61110Y-43550D02*
X61110Y-43190D01*
X54640Y-46160D02*
X58480Y-42320D01*
X52240Y-46160D02*
X54640Y-46160D01*
X52240Y-46160D02*
X51920Y-46480D01*
X60240Y-42320D02*
X58480Y-42320D01*
X61110Y-43190D02*
X60240Y-42320D01*
X50704Y-50220D02*
X50704Y-47696D01*
X50704Y-47696D02*
X51920Y-46480D01*
X51840Y-46080D02*
X50508Y-47412D01*
X54560Y-46000D02*
X51920Y-46000D01*
X51920Y-46000D02*
X51840Y-46080D01*
X58400Y-42160D02*
X60320Y-42160D01*
X50508Y-50220D02*
X50508Y-47412D01*
X61310Y-43550D02*
X61310Y-43150D01*
X60320Y-42160D02*
X61310Y-43150D01*
X54560Y-46000D02*
X58400Y-42160D01*
X50507Y-42530D02*
X50507Y-43367D01*
X50507Y-43367D02*
X50620Y-43480D01*
X50620Y-43480D02*
X50620Y-44780D01*
X51600Y-45760D02*
X54560Y-45760D01*
X58320Y-42000D02*
X54560Y-45760D01*
X61510Y-43110D02*
X61510Y-43550D01*
X60400Y-42000D02*
X61510Y-43110D01*
X60400Y-42000D02*
X58320Y-42000D01*
X50620Y-44780D02*
X51600Y-45760D01*
X53657Y-50220D02*
X53657Y-49623D01*
X54640Y-48640D02*
X54960Y-48640D01*
X57200Y-46400D02*
X54960Y-48640D01*
X53657Y-49623D02*
X54640Y-48640D01*
X58220Y-45220D02*
X59050Y-45220D01*
X57200Y-46400D02*
X57200Y-46240D01*
X57200Y-46240D02*
X58220Y-45220D01*
X58170Y-45030D02*
X59050Y-45030D01*
X53461Y-49499D02*
X54480Y-48480D01*
X53461Y-49499D02*
X53461Y-50220D01*
X54480Y-48480D02*
X54720Y-48480D01*
X54720Y-48480D02*
X58170Y-45030D01*
X55035Y-50220D02*
X55035Y-50555D01*
X55440Y-50640D02*
X56400Y-49680D01*
X55120Y-50640D02*
X55440Y-50640D01*
X55035Y-50555D02*
X55120Y-50640D01*
X56400Y-49680D02*
X56400Y-49360D01*
X56400Y-49360D02*
X56400Y-48800D01*
X58200Y-47000D02*
X56400Y-48800D01*
X58200Y-47000D02*
X59050Y-47000D01*
X52083Y-50220D02*
X52083Y-49757D01*
X58040Y-44440D02*
X59050Y-44440D01*
X52083Y-49757D02*
X53840Y-48000D01*
X53840Y-48000D02*
X54480Y-48000D01*
X54480Y-48000D02*
X58040Y-44440D01*
X54839Y-50599D02*
X55040Y-50800D01*
X55840Y-50800D02*
X56800Y-49840D01*
X55040Y-50800D02*
X55840Y-50800D01*
X56800Y-49520D02*
X56800Y-49840D01*
X56800Y-49520D02*
X56800Y-48640D01*
X54839Y-50220D02*
X54839Y-50599D01*
X59050Y-47190D02*
X58250Y-47190D01*
X58250Y-47190D02*
X56800Y-48640D01*
X54720Y-49760D02*
X55760Y-49760D01*
X55760Y-49760D02*
X56000Y-49520D01*
X56000Y-49520D02*
X56000Y-48960D01*
X59050Y-46800D02*
X58160Y-46800D01*
X58160Y-46800D02*
X56000Y-48960D01*
X54642Y-49838D02*
X54642Y-50220D01*
X54642Y-49838D02*
X54720Y-49760D01*
X54640Y-49600D02*
X55360Y-49600D01*
X55360Y-49600D02*
X55600Y-49360D01*
X55600Y-49360D02*
X55600Y-49120D01*
X58310Y-46410D02*
X59050Y-46410D01*
X55600Y-49120D02*
X58310Y-46410D01*
X54445Y-50220D02*
X54445Y-49795D01*
X54445Y-49795D02*
X54640Y-49600D01*
X54248Y-49752D02*
X54248Y-50220D01*
X54720Y-49280D02*
X55200Y-49280D01*
X54248Y-49752D02*
X54720Y-49280D01*
X55200Y-49280D02*
X58270Y-46210D01*
X58270Y-46210D02*
X59050Y-46210D01*
X54051Y-50220D02*
X54051Y-49709D01*
X58320Y-45920D02*
X58400Y-45920D01*
X55280Y-48960D02*
X58320Y-45920D01*
X54800Y-48960D02*
X55280Y-48960D01*
X54051Y-49709D02*
X54800Y-48960D01*
X58490Y-46010D02*
X58400Y-45920D01*
X59050Y-46010D02*
X58490Y-46010D01*
X53854Y-50220D02*
X53854Y-49666D01*
X58420Y-45420D02*
X57600Y-46240D01*
X58420Y-45420D02*
X59050Y-45420D01*
X55200Y-48800D02*
X57600Y-46400D01*
X54720Y-48800D02*
X55200Y-48800D01*
X57600Y-46400D02*
X57600Y-46240D01*
X53854Y-49666D02*
X54720Y-48800D01*
X52880Y-48080D02*
X53120Y-47840D01*
X58000Y-44240D02*
X59050Y-44240D01*
X54400Y-47840D02*
X58000Y-44240D01*
X53120Y-47840D02*
X54400Y-47840D01*
X51886Y-49074D02*
X51886Y-50220D01*
X51886Y-49074D02*
X52880Y-48080D01*
X54480Y-43360D02*
X54480Y-43280D01*
X54480Y-43280D02*
X54248Y-43048D01*
X54248Y-42530D02*
X54248Y-43048D01*
X64260Y-43180D02*
X64260Y-43550D01*
X64440Y-43000D02*
X64260Y-43180D01*
X64440Y-42760D02*
X64440Y-43000D01*
X63680Y-42000D02*
X64440Y-42760D01*
X63280Y-42000D02*
X63680Y-42000D01*
X53854Y-42530D02*
X53854Y-43054D01*
X53854Y-43054D02*
X54080Y-43280D01*
X62880Y-42560D02*
X62880Y-42160D01*
X62880Y-42560D02*
X63480Y-43160D01*
X63480Y-43160D02*
X63480Y-43550D01*
X53460Y-42940D02*
X53460Y-42530D01*
X53440Y-42960D02*
X53460Y-42940D01*
X53360Y-43040D02*
X53440Y-42960D01*
X53040Y-43200D02*
X53200Y-43040D01*
X53200Y-43040D02*
X53360Y-43040D01*
X53040Y-43360D02*
X53040Y-43200D01*
X62480Y-42160D02*
X62480Y-42400D01*
X62480Y-42400D02*
X63080Y-43000D01*
X53460Y-42060D02*
X53760Y-41760D01*
X53760Y-41760D02*
X54160Y-41760D01*
X53460Y-42530D02*
X53460Y-42060D01*
X63080Y-43000D02*
X63080Y-43550D01*
X53066Y-42530D02*
X53066Y-42934D01*
X52640Y-43200D02*
X52640Y-43440D01*
X52800Y-43040D02*
X52640Y-43200D01*
X52960Y-43040D02*
X52800Y-43040D01*
X53066Y-42934D02*
X52960Y-43040D01*
X52960Y-43760D02*
X53120Y-43760D01*
X62890Y-43050D02*
X62890Y-43550D01*
X53120Y-43760D02*
X55120Y-43760D01*
X55120Y-43760D02*
X57840Y-41040D01*
X60880Y-41040D02*
X57840Y-41040D01*
X62890Y-43050D02*
X60880Y-41040D01*
X52640Y-43440D02*
X52960Y-43760D01*
X52320Y-43120D02*
X52320Y-44000D01*
X52960Y-44640D02*
X52320Y-44000D01*
X52320Y-43120D02*
X52476Y-42964D01*
X52476Y-42530D02*
X52476Y-42964D01*
X54480Y-44640D02*
X52960Y-44640D01*
X57920Y-41200D02*
X60800Y-41200D01*
X54480Y-44640D02*
X57920Y-41200D01*
X60800Y-41200D02*
X62690Y-43090D01*
X62690Y-43550D02*
X62690Y-43090D01*
X52080Y-42880D02*
X52080Y-44320D01*
X52082Y-44320D02*
X52080Y-44320D01*
X52082Y-44322D02*
X52720Y-44960D01*
X52082Y-44320D02*
X52082Y-44322D01*
X52080Y-42880D02*
X52082Y-42878D01*
X62490Y-43130D02*
X60720Y-41360D01*
X60720Y-41360D02*
X58000Y-41360D01*
X62490Y-43130D02*
X62490Y-43550D01*
X52720Y-44960D02*
X54400Y-44960D01*
X52082Y-42530D02*
X52082Y-42878D01*
X54400Y-44960D02*
X58000Y-41360D01*
X51688Y-42530D02*
X51688Y-44728D01*
X51688Y-44728D02*
X51760Y-44800D01*
X51760Y-44800D02*
X52240Y-45280D01*
X52240Y-45280D02*
X54320Y-45280D01*
X54320Y-45280D02*
X58080Y-41520D01*
X58080Y-41520D02*
X60640Y-41520D01*
X62100Y-42980D02*
X60640Y-41520D01*
X62100Y-42980D02*
X62100Y-43550D01*
X51280Y-44720D02*
X52000Y-45440D01*
X58160Y-41680D02*
X54400Y-45440D01*
X61900Y-43020D02*
X61900Y-43550D01*
X60560Y-41680D02*
X61900Y-43020D01*
X58160Y-41680D02*
X60560Y-41680D01*
X52000Y-45440D02*
X54400Y-45440D01*
X51295Y-42530D02*
X51295Y-44705D01*
X51295Y-44705D02*
X51280Y-44720D01*
X52673Y-49887D02*
X52800Y-49760D01*
X52960Y-49760D02*
X54400Y-48320D01*
X52800Y-49760D02*
X52960Y-49760D01*
X59050Y-44830D02*
X58130Y-44830D01*
X52673Y-49887D02*
X52673Y-50220D01*
X54400Y-48320D02*
X54640Y-48320D01*
X54640Y-48320D02*
X58130Y-44830D01*
X52880Y-49360D02*
X54080Y-48160D01*
X52880Y-49360D02*
X52476Y-49764D01*
X52476Y-49764D02*
X52476Y-50220D01*
X58090Y-44630D02*
X59050Y-44630D01*
X54080Y-48160D02*
X54560Y-48160D01*
X54560Y-48160D02*
X58090Y-44630D01*
X57120Y-49360D02*
X57120Y-48560D01*
X58290Y-47390D02*
X59050Y-47390D01*
X58290Y-47390D02*
X57120Y-48560D01*
G54D29*
X63300Y-49000D02*
X63480Y-49000D01*
X63480Y-49000D02*
X63520Y-49040D01*
X63680Y-49200D02*
X63680Y-49650D01*
X63680Y-49200D02*
X63520Y-49040D01*
X60920Y-43550D02*
X60920Y-44080D01*
X59740Y-43550D02*
X59740Y-44060D01*
G54D30*
X59760Y-44080D02*
X60920Y-44080D01*
X60920Y-44080D02*
X62400Y-44080D01*
G54D29*
X59740Y-44060D02*
X59760Y-44080D01*
X62290Y-43550D02*
X62290Y-43970D01*
X62290Y-43970D02*
X62400Y-44080D01*
X65150Y-45420D02*
X64780Y-45420D01*
X62960Y-44640D02*
X62400Y-44080D01*
X64000Y-44640D02*
X62960Y-44640D01*
X64780Y-45420D02*
X64000Y-44640D01*
G54D32*
X53040Y-40160D02*
X53440Y-40560D01*
X53040Y-40160D02*
X52400Y-40160D01*
G54D30*
X54040Y-41160D02*
X53400Y-41160D01*
X53400Y-41160D02*
X52905Y-40665D01*
X67550Y-42210D02*
X67680Y-42080D01*
X67680Y-42080D02*
X68160Y-42080D01*
X67550Y-42210D02*
X67550Y-42640D01*
G54D31*
X47945Y-45920D02*
X46960Y-45920D01*
G54D30*
X47820Y-47680D02*
X46960Y-47680D01*
X52400Y-40665D02*
X52400Y-40160D01*
X52400Y-40160D02*
X52320Y-40080D01*
G54D31*
X69040Y-45705D02*
X69040Y-47600D01*
X52400Y-40160D02*
X52400Y-37760D01*
X48614Y-38500D02*
X48614Y-37760D01*
X53614Y-38500D02*
X53614Y-37760D01*
X60614Y-38500D02*
X60614Y-37760D01*
X65614Y-38500D02*
X65614Y-37760D01*
X69040Y-40320D02*
X69040Y-38400D01*
X47520Y-37760D02*
X48614Y-37760D01*
X46960Y-38320D02*
X46960Y-42640D01*
X46960Y-38320D02*
X47520Y-37760D01*
X46960Y-42640D02*
X46960Y-45920D01*
X48614Y-37760D02*
X52400Y-37760D01*
X52400Y-37760D02*
X53614Y-37760D01*
X53614Y-37760D02*
X60614Y-37760D01*
X60614Y-37760D02*
X65614Y-37760D01*
X65614Y-37760D02*
X68400Y-37760D01*
X69040Y-38400D02*
X68400Y-37760D01*
G54D30*
X67760Y-45705D02*
X69040Y-45705D01*
G54D31*
X68560Y-44960D02*
X69040Y-44960D01*
X69040Y-44960D02*
X69040Y-45705D01*
X69040Y-44960D02*
X69040Y-40320D01*
G54D30*
X67760Y-45705D02*
X67760Y-45520D01*
X67920Y-45360D02*
X68080Y-45360D01*
X67760Y-45520D02*
X67920Y-45360D01*
G54D31*
X69040Y-40320D02*
X68480Y-40320D01*
X46960Y-45920D02*
X46960Y-47680D01*
X46960Y-47680D02*
X46960Y-48980D01*
X46960Y-48980D02*
X47420Y-49440D01*
X53614Y-38500D02*
X53614Y-38494D01*
G54D30*
X52400Y-40665D02*
X51735Y-40665D01*
X50880Y-41520D02*
X50880Y-42000D01*
X51735Y-40665D02*
X50880Y-41520D01*
G54D29*
X54641Y-42530D02*
X54641Y-41761D01*
G54D30*
X54040Y-41160D02*
X54640Y-41760D01*
X52905Y-40665D02*
X52400Y-40665D01*
G54D29*
X54641Y-41761D02*
X54640Y-41760D01*
G54D31*
X48640Y-50400D02*
X47440Y-50400D01*
G54D29*
X50704Y-42530D02*
X50704Y-42176D01*
X50704Y-42176D02*
X50880Y-42000D01*
X50880Y-42000D02*
X50901Y-41979D01*
X50901Y-42530D02*
X50901Y-41979D01*
X59050Y-48960D02*
X59440Y-48960D01*
X59920Y-46120D02*
X59600Y-45800D01*
X59920Y-48480D02*
X59920Y-46120D01*
X59440Y-48960D02*
X59920Y-48480D01*
G54D31*
X68500Y-53000D02*
X68500Y-54750D01*
X68500Y-53000D02*
X69000Y-52500D01*
G54D11*
X65150Y-47980D02*
X64680Y-47980D01*
X64680Y-47980D02*
X64600Y-47900D01*
G54D29*
X59050Y-45810D02*
X59590Y-45810D01*
G54D32*
X59590Y-45810D02*
X59600Y-45800D01*
G54D31*
X47500Y-52860D02*
X47500Y-54750D01*
X47440Y-52800D02*
X47500Y-52860D01*
X47945Y-49440D02*
X47420Y-49440D01*
X47440Y-52800D02*
X47440Y-50400D01*
X47440Y-50400D02*
X47440Y-49460D01*
X47440Y-49460D02*
X47420Y-49440D01*
G54D11*
X59680Y-52800D02*
X61510Y-50970D01*
X56500Y-53400D02*
X56500Y-54750D01*
X61510Y-49650D02*
X61510Y-50970D01*
X57100Y-52800D02*
X59680Y-52800D01*
X56500Y-53400D02*
X57100Y-52800D01*
G54D29*
X64080Y-41439D02*
X64080Y-42000D01*
X64080Y-42000D02*
X64800Y-42720D01*
X64800Y-42720D02*
X64800Y-44160D01*
X64800Y-44160D02*
X64880Y-44240D01*
X64880Y-44240D02*
X65150Y-44240D01*
G54D11*
X65840Y-45520D02*
X65840Y-45680D01*
X65160Y-46000D02*
X65150Y-46010D01*
X65520Y-46000D02*
X65160Y-46000D01*
X65840Y-45680D02*
X65520Y-46000D01*
X66960Y-48240D02*
X65710Y-46990D01*
X65710Y-46990D02*
X65150Y-46990D01*
X67840Y-48240D02*
X66960Y-48240D01*
X65150Y-46200D02*
X65960Y-46200D01*
X65960Y-46200D02*
X66480Y-45680D01*
X63520Y-48720D02*
X63870Y-49070D01*
X63520Y-48720D02*
X60000Y-48720D01*
X60000Y-48720D02*
X59280Y-49440D01*
X59280Y-49920D02*
X59280Y-49440D01*
X63870Y-49650D02*
X63870Y-49070D01*
X66572Y-51535D02*
X66572Y-51872D01*
X67500Y-52800D02*
X67500Y-54750D01*
X66572Y-51872D02*
X67500Y-52800D01*
X60500Y-53400D02*
X61260Y-52640D01*
X60500Y-53400D02*
X60500Y-54750D01*
X63328Y-52400D02*
X63088Y-52640D01*
X63328Y-52400D02*
X63328Y-51535D01*
X61260Y-52640D02*
X63088Y-52640D01*
X63643Y-52357D02*
X63200Y-52800D01*
X61500Y-54750D02*
X61500Y-53400D01*
X61500Y-53400D02*
X62100Y-52800D01*
X62100Y-52800D02*
X63200Y-52800D01*
X63643Y-52357D02*
X63643Y-51535D01*
X62500Y-53240D02*
X63000Y-53240D01*
X63957Y-52283D02*
X63957Y-51535D01*
X63000Y-53240D02*
X63957Y-52283D01*
X62500Y-53240D02*
X62500Y-54750D01*
X63500Y-54750D02*
X63500Y-53220D01*
X64272Y-52448D02*
X63500Y-53220D01*
X64272Y-52448D02*
X64272Y-51535D01*
X65628Y-51535D02*
X65628Y-51772D01*
X64500Y-52900D02*
X64500Y-54750D01*
X65628Y-51772D02*
X64500Y-52900D01*
X65943Y-51535D02*
X65943Y-52357D01*
X65500Y-52800D02*
X65500Y-54750D01*
X65943Y-52357D02*
X65500Y-52800D01*
X54500Y-54750D02*
X54500Y-53400D01*
X58400Y-48560D02*
X58400Y-49600D01*
X58400Y-48560D02*
X58590Y-48370D01*
X58590Y-48370D02*
X59050Y-48370D01*
X58080Y-52480D02*
X58640Y-51920D01*
X54500Y-53400D02*
X55420Y-52480D01*
X55420Y-52480D02*
X58080Y-52480D01*
X58400Y-49600D02*
X58640Y-49840D01*
X58640Y-49840D02*
X58640Y-51920D01*
X57200Y-50800D02*
X57760Y-50240D01*
X57760Y-48148D02*
X57760Y-50240D01*
X58318Y-47590D02*
X57760Y-48148D01*
X58318Y-47590D02*
X59050Y-47590D01*
X59050Y-48770D02*
X58670Y-48770D01*
X58560Y-49200D02*
X58800Y-49440D01*
X58560Y-48880D02*
X58560Y-49200D01*
X58670Y-48770D02*
X58560Y-48880D01*
X50480Y-51680D02*
X50480Y-52400D01*
X50480Y-52400D02*
X50080Y-52800D01*
X57440Y-51600D02*
X58080Y-50960D01*
X59050Y-47980D02*
X58420Y-47980D01*
X58080Y-48320D02*
X58080Y-50960D01*
X58420Y-47980D02*
X58080Y-48320D01*
X65150Y-45020D02*
X66500Y-45020D01*
X67440Y-44080D02*
X67440Y-43760D01*
X66500Y-45020D02*
X67440Y-44080D01*
X65150Y-46790D02*
X65610Y-46790D01*
X66000Y-46400D02*
X66160Y-46400D01*
X65610Y-46790D02*
X66000Y-46400D01*
X66880Y-45680D02*
X66160Y-46400D01*
X65150Y-44830D02*
X66050Y-44830D01*
X66550Y-42950D02*
X66550Y-42640D01*
X66880Y-43280D02*
X66550Y-42950D01*
X66880Y-44000D02*
X66880Y-43280D01*
X66050Y-44830D02*
X66880Y-44000D01*
X61910Y-49650D02*
X61910Y-51050D01*
X58500Y-53420D02*
X58500Y-54750D01*
X58800Y-53120D02*
X58500Y-53420D01*
X58800Y-53120D02*
X59840Y-53120D01*
X59840Y-53120D02*
X61910Y-51050D01*
X64400Y-45680D02*
X64530Y-45810D01*
X65150Y-45810D02*
X64530Y-45810D01*
X64480Y-45360D02*
X63520Y-45360D01*
X63520Y-45360D02*
X63440Y-45280D01*
X64480Y-45360D02*
X64730Y-45610D01*
X65150Y-45610D02*
X64730Y-45610D01*
X54839Y-42121D02*
X54880Y-42080D01*
X54880Y-42080D02*
X55200Y-42080D01*
X54839Y-42530D02*
X54839Y-42121D01*
X55680Y-42560D02*
X55200Y-42080D01*
X55680Y-42720D02*
X55680Y-42560D01*
X63870Y-42670D02*
X63680Y-42480D01*
X63870Y-42670D02*
X63870Y-43550D01*
X56560Y-51839D02*
X52961Y-51839D01*
X51500Y-54750D02*
X51500Y-53300D01*
X58380Y-47780D02*
X57920Y-48240D01*
X57920Y-48240D02*
X57920Y-50479D01*
X56560Y-51839D02*
X57920Y-50479D01*
X58380Y-47780D02*
X59050Y-47780D01*
X51500Y-53300D02*
X52961Y-51839D01*
X65150Y-46400D02*
X64800Y-46400D01*
X50500Y-53000D02*
X50500Y-54750D01*
X62320Y-46320D02*
X60400Y-48240D01*
X64720Y-46320D02*
X62320Y-46320D01*
X64800Y-46400D02*
X64720Y-46320D01*
X65150Y-44430D02*
X65810Y-44430D01*
X66160Y-44080D02*
X66160Y-43760D01*
X65810Y-44430D02*
X66160Y-44080D01*
X65150Y-45220D02*
X66780Y-45220D01*
X67050Y-42970D02*
X67050Y-42640D01*
X67200Y-43120D02*
X67050Y-42970D01*
X67600Y-43120D02*
X67200Y-43120D01*
X68000Y-43520D02*
X67600Y-43120D01*
X68000Y-44000D02*
X68000Y-43520D01*
X66780Y-45220D02*
X68000Y-44000D01*
X65150Y-44630D02*
X66010Y-44630D01*
X66050Y-42930D02*
X66050Y-42640D01*
X66720Y-43600D02*
X66050Y-42930D01*
X66720Y-43920D02*
X66720Y-43600D01*
X66010Y-44630D02*
X66720Y-43920D01*
X59500Y-54750D02*
X59500Y-53400D01*
X59500Y-53400D02*
X59620Y-53280D01*
X59620Y-53280D02*
X59920Y-53280D01*
X59920Y-53280D02*
X62100Y-51100D01*
X62100Y-51100D02*
X62100Y-49650D01*
X53500Y-54750D02*
X53500Y-53400D01*
X58240Y-48480D02*
X58240Y-49680D01*
X58240Y-48480D02*
X58540Y-48180D01*
X58540Y-48180D02*
X59050Y-48180D01*
X58000Y-52320D02*
X58480Y-51840D01*
X54580Y-52320D02*
X58000Y-52320D01*
X53500Y-53400D02*
X54580Y-52320D01*
X58240Y-49680D02*
X58480Y-49920D01*
X58480Y-49920D02*
X58480Y-51840D01*
X55500Y-54750D02*
X55500Y-53300D01*
X55500Y-53300D02*
X56160Y-52640D01*
X58160Y-52640D02*
X58800Y-52000D01*
X58800Y-50880D02*
X58800Y-52000D01*
X59740Y-49940D02*
X58800Y-50880D01*
X59740Y-49940D02*
X59740Y-49650D01*
X58160Y-52640D02*
X56160Y-52640D01*
X64070Y-49650D02*
X64070Y-49210D01*
X64070Y-49210D02*
X64320Y-48960D01*
X59760Y-52960D02*
X61710Y-51010D01*
X57500Y-54750D02*
X57500Y-53400D01*
X57500Y-53400D02*
X57940Y-52960D01*
X57940Y-52960D02*
X59760Y-52960D01*
X61710Y-49650D02*
X61710Y-51010D01*
X65550Y-42640D02*
X65550Y-43330D01*
X59380Y-45620D02*
X59050Y-45620D01*
X60040Y-44960D02*
X59380Y-45620D01*
X63920Y-44960D02*
X60040Y-44960D01*
X65550Y-43330D02*
X65120Y-43760D01*
X54445Y-42530D02*
X54445Y-42925D01*
X54800Y-43280D02*
X54880Y-43280D01*
X54445Y-42925D02*
X54800Y-43280D01*
X64070Y-43130D02*
X64070Y-43550D01*
X64160Y-43040D02*
X64070Y-43130D01*
X64160Y-42880D02*
X64160Y-43040D01*
G54D30*
X62241Y-40321D02*
X62000Y-40080D01*
X62241Y-40321D02*
X64080Y-40321D01*
G54D11*
X66257Y-51535D02*
X66257Y-52557D01*
X66500Y-52800D02*
X66500Y-54750D01*
X66257Y-52557D02*
X66500Y-52800D01*
G54D29*
X46850Y-37650D02*
X69150Y-37650D01*
X46850Y-37730D02*
X69150Y-37730D01*
X46850Y-37810D02*
X69150Y-37810D01*
X46850Y-37890D02*
X57399Y-37890D01*
X58600Y-37890D02*
X69150Y-37890D01*
X46850Y-37970D02*
X48450Y-37970D01*
X48490Y-37970D02*
X48739Y-37970D01*
X48779Y-37970D02*
X53450Y-37970D01*
X53490Y-37970D02*
X53739Y-37970D01*
X53779Y-37970D02*
X57319Y-37970D01*
X58680Y-37970D02*
X60450Y-37970D01*
X60490Y-37970D02*
X60739Y-37970D01*
X60779Y-37970D02*
X65450Y-37970D01*
X65490Y-37970D02*
X65739Y-37970D01*
X65779Y-37970D02*
X69150Y-37970D01*
X46850Y-38050D02*
X48234Y-38050D01*
X48564Y-38050D02*
X48664Y-38050D01*
X48995Y-38050D02*
X50094Y-38050D01*
X50680Y-38050D02*
X53234Y-38050D01*
X53564Y-38050D02*
X53664Y-38050D01*
X53995Y-38050D02*
X55094Y-38050D01*
X62680Y-38050D02*
X65234Y-38050D01*
X65564Y-38050D02*
X65664Y-38050D01*
X65995Y-38050D02*
X67094Y-38050D01*
X67680Y-38050D02*
X69150Y-38050D01*
X46850Y-38130D02*
X48130Y-38130D01*
X48564Y-38130D02*
X48664Y-38130D01*
X49099Y-38130D02*
X49960Y-38130D01*
X50813Y-38130D02*
X53130Y-38130D01*
X53564Y-38130D02*
X53664Y-38130D01*
X54099Y-38130D02*
X54960Y-38130D01*
X62813Y-38130D02*
X65130Y-38130D01*
X65564Y-38130D02*
X65664Y-38130D01*
X66099Y-38130D02*
X66960Y-38130D01*
X67813Y-38130D02*
X69150Y-38130D01*
X46850Y-38210D02*
X48073Y-38210D01*
X48564Y-38210D02*
X48664Y-38210D01*
X49156Y-38210D02*
X49880Y-38210D01*
X50893Y-38210D02*
X53073Y-38210D01*
X53564Y-38210D02*
X53664Y-38210D01*
X54156Y-38210D02*
X54880Y-38210D01*
X62893Y-38210D02*
X65073Y-38210D01*
X65564Y-38210D02*
X65664Y-38210D01*
X66156Y-38210D02*
X66880Y-38210D01*
X67893Y-38210D02*
X69150Y-38210D01*
X46850Y-38290D02*
X48028Y-38290D01*
X48564Y-38290D02*
X48664Y-38290D01*
X49201Y-38290D02*
X49838Y-38290D01*
X50934Y-38290D02*
X53028Y-38290D01*
X53564Y-38290D02*
X53664Y-38290D01*
X54201Y-38290D02*
X54838Y-38290D01*
X62934Y-38290D02*
X65028Y-38290D01*
X65564Y-38290D02*
X65664Y-38290D01*
X66201Y-38290D02*
X66838Y-38290D01*
X67934Y-38290D02*
X69150Y-38290D01*
X46850Y-38370D02*
X47990Y-38370D01*
X48564Y-38370D02*
X48664Y-38370D01*
X49237Y-38370D02*
X49805Y-38370D01*
X50967Y-38370D02*
X52990Y-38370D01*
X53564Y-38370D02*
X53664Y-38370D01*
X54237Y-38370D02*
X54805Y-38370D01*
X62967Y-38370D02*
X64990Y-38370D01*
X65564Y-38370D02*
X65664Y-38370D01*
X66237Y-38370D02*
X66805Y-38370D01*
X67967Y-38370D02*
X69150Y-38370D01*
X46850Y-38450D02*
X49791Y-38450D01*
X50981Y-38450D02*
X54791Y-38450D01*
X62981Y-38450D02*
X66791Y-38450D01*
X67981Y-38450D02*
X69150Y-38450D01*
X46850Y-38530D02*
X49791Y-38530D01*
X50981Y-38530D02*
X54791Y-38530D01*
X62981Y-38530D02*
X66791Y-38530D01*
X67981Y-38530D02*
X69150Y-38530D01*
X46850Y-38610D02*
X48002Y-38610D01*
X48564Y-38610D02*
X48664Y-38610D01*
X49227Y-38610D02*
X49796Y-38610D01*
X50975Y-38610D02*
X53002Y-38610D01*
X53564Y-38610D02*
X53664Y-38610D01*
X54227Y-38610D02*
X54796Y-38610D01*
X62975Y-38610D02*
X65002Y-38610D01*
X65564Y-38610D02*
X65664Y-38610D01*
X66227Y-38610D02*
X66796Y-38610D01*
X67975Y-38610D02*
X69150Y-38610D01*
X46850Y-38690D02*
X48015Y-38690D01*
X48564Y-38690D02*
X48664Y-38690D01*
X49212Y-38690D02*
X49829Y-38690D01*
X50942Y-38690D02*
X53015Y-38690D01*
X53564Y-38690D02*
X53664Y-38690D01*
X54212Y-38690D02*
X54829Y-38690D01*
X62942Y-38690D02*
X65015Y-38690D01*
X65564Y-38690D02*
X65664Y-38690D01*
X66212Y-38690D02*
X66829Y-38690D01*
X67942Y-38690D02*
X69150Y-38690D01*
X46850Y-38770D02*
X48061Y-38770D01*
X48564Y-38770D02*
X48664Y-38770D01*
X49166Y-38770D02*
X49862Y-38770D01*
X50909Y-38770D02*
X53061Y-38770D01*
X53564Y-38770D02*
X53664Y-38770D01*
X54166Y-38770D02*
X54862Y-38770D01*
X62920Y-38770D02*
X65061Y-38770D01*
X65564Y-38770D02*
X65664Y-38770D01*
X66166Y-38770D02*
X66862Y-38770D01*
X67909Y-38770D02*
X69150Y-38770D01*
X46850Y-38850D02*
X48106Y-38850D01*
X48564Y-38850D02*
X48664Y-38850D01*
X49121Y-38850D02*
X49939Y-38850D01*
X50832Y-38850D02*
X53106Y-38850D01*
X53564Y-38850D02*
X53664Y-38850D01*
X54121Y-38850D02*
X54934Y-38850D01*
X63000Y-38850D02*
X65106Y-38850D01*
X65564Y-38850D02*
X65664Y-38850D01*
X66121Y-38850D02*
X66939Y-38850D01*
X67832Y-38850D02*
X69150Y-38850D01*
X46850Y-38930D02*
X47895Y-38930D01*
X48564Y-38930D02*
X48664Y-38930D01*
X49020Y-38930D02*
X50044Y-38930D01*
X51106Y-38930D02*
X52895Y-38930D01*
X53564Y-38930D02*
X53664Y-38930D01*
X54020Y-38930D02*
X54870Y-38930D01*
X63107Y-38930D02*
X64895Y-38930D01*
X65564Y-38930D02*
X65664Y-38930D01*
X66020Y-38930D02*
X67044Y-38930D01*
X68106Y-38930D02*
X69150Y-38930D01*
X46850Y-39010D02*
X47749Y-39010D01*
X48516Y-39010D02*
X48711Y-39010D01*
X48852Y-39010D02*
X50505Y-39010D01*
X51251Y-39010D02*
X52749Y-39010D01*
X53516Y-39010D02*
X53711Y-39010D01*
X53852Y-39010D02*
X54806Y-39010D01*
X63251Y-39010D02*
X64749Y-39010D01*
X65516Y-39010D02*
X65711Y-39010D01*
X65852Y-39010D02*
X67505Y-39010D01*
X68251Y-39010D02*
X69150Y-39010D01*
X46850Y-39090D02*
X47669Y-39090D01*
X48575Y-39090D02*
X50425Y-39090D01*
X51331Y-39090D02*
X52669Y-39090D01*
X53575Y-39090D02*
X54741Y-39090D01*
X63331Y-39090D02*
X64669Y-39090D01*
X65575Y-39090D02*
X67425Y-39090D01*
X68331Y-39090D02*
X69150Y-39090D01*
X46850Y-39170D02*
X47604Y-39170D01*
X48641Y-39170D02*
X50360Y-39170D01*
X51397Y-39170D02*
X52604Y-39170D01*
X53641Y-39170D02*
X54677Y-39170D01*
X63397Y-39170D02*
X64604Y-39170D01*
X65641Y-39170D02*
X67360Y-39170D01*
X68397Y-39170D02*
X69150Y-39170D01*
X46850Y-39250D02*
X47571Y-39250D01*
X48674Y-39250D02*
X50327Y-39250D01*
X51430Y-39250D02*
X52571Y-39250D01*
X53674Y-39250D02*
X54613Y-39250D01*
X63430Y-39250D02*
X64571Y-39250D01*
X65674Y-39250D02*
X67327Y-39250D01*
X68430Y-39250D02*
X69150Y-39250D01*
X46850Y-39330D02*
X47538Y-39330D01*
X48707Y-39330D02*
X50294Y-39330D01*
X51463Y-39330D02*
X52538Y-39330D01*
X53707Y-39330D02*
X54549Y-39330D01*
X63480Y-39330D02*
X64538Y-39330D01*
X65707Y-39330D02*
X67294Y-39330D01*
X68463Y-39330D02*
X69150Y-39330D01*
X46850Y-39410D02*
X47523Y-39410D01*
X48721Y-39410D02*
X50279Y-39410D01*
X51477Y-39410D02*
X52523Y-39410D01*
X53721Y-39410D02*
X54484Y-39410D01*
X63560Y-39410D02*
X64523Y-39410D01*
X65721Y-39410D02*
X67279Y-39410D01*
X68477Y-39410D02*
X69150Y-39410D01*
X46850Y-39490D02*
X47523Y-39490D01*
X48721Y-39490D02*
X50279Y-39490D01*
X51477Y-39490D02*
X52523Y-39490D01*
X53721Y-39490D02*
X54420Y-39490D01*
X63640Y-39490D02*
X64523Y-39490D01*
X65721Y-39490D02*
X67279Y-39490D01*
X68477Y-39490D02*
X69150Y-39490D01*
X46850Y-39570D02*
X47523Y-39570D01*
X48721Y-39570D02*
X50279Y-39570D01*
X51477Y-39570D02*
X52523Y-39570D01*
X53721Y-39570D02*
X54356Y-39570D01*
X63720Y-39570D02*
X64523Y-39570D01*
X65721Y-39570D02*
X67279Y-39570D01*
X68477Y-39570D02*
X69150Y-39570D01*
X46850Y-39650D02*
X47542Y-39650D01*
X48701Y-39650D02*
X50298Y-39650D01*
X51457Y-39650D02*
X52542Y-39650D01*
X53701Y-39650D02*
X54291Y-39650D01*
X63800Y-39650D02*
X64542Y-39650D01*
X65701Y-39650D02*
X67298Y-39650D01*
X68457Y-39650D02*
X69150Y-39650D01*
X46850Y-39730D02*
X47575Y-39730D01*
X48668Y-39730D02*
X50331Y-39730D01*
X51424Y-39730D02*
X52575Y-39730D01*
X53668Y-39730D02*
X54227Y-39730D01*
X63880Y-39730D02*
X64575Y-39730D01*
X65668Y-39730D02*
X66833Y-39730D01*
X67247Y-39730D02*
X67331Y-39730D01*
X68424Y-39730D02*
X69150Y-39730D01*
X46850Y-39810D02*
X47608Y-39810D01*
X48635Y-39810D02*
X50364Y-39810D01*
X51391Y-39810D02*
X52608Y-39810D01*
X53635Y-39810D02*
X54163Y-39810D01*
X64479Y-39810D02*
X64608Y-39810D01*
X65635Y-39810D02*
X66754Y-39810D01*
X67327Y-39810D02*
X67364Y-39810D01*
X68391Y-39810D02*
X69150Y-39810D01*
X46850Y-39890D02*
X47681Y-39890D01*
X48563Y-39890D02*
X50437Y-39890D01*
X51319Y-39890D02*
X52681Y-39890D01*
X53563Y-39890D02*
X53713Y-39890D01*
X64598Y-39890D02*
X64681Y-39890D01*
X65563Y-39890D02*
X66721Y-39890D01*
X67360Y-39890D02*
X67437Y-39890D01*
X68319Y-39890D02*
X69150Y-39890D01*
X46850Y-39970D02*
X47761Y-39970D01*
X48483Y-39970D02*
X50517Y-39970D01*
X51239Y-39970D02*
X52761Y-39970D01*
X53483Y-39970D02*
X53634Y-39970D01*
X64633Y-39970D02*
X64761Y-39970D01*
X65483Y-39970D02*
X66703Y-39970D01*
X67377Y-39970D02*
X67517Y-39970D01*
X68239Y-39970D02*
X69150Y-39970D01*
X46850Y-40050D02*
X47923Y-40050D01*
X48320Y-40050D02*
X50679Y-40050D01*
X51076Y-40050D02*
X52923Y-40050D01*
X53320Y-40050D02*
X53601Y-40050D01*
X64633Y-40050D02*
X64923Y-40050D01*
X65320Y-40050D02*
X66703Y-40050D01*
X67430Y-40050D02*
X67679Y-40050D01*
X68076Y-40050D02*
X69150Y-40050D01*
X46850Y-40130D02*
X53583Y-40130D01*
X64633Y-40130D02*
X66728Y-40130D01*
X67510Y-40130D02*
X69150Y-40130D01*
X46850Y-40210D02*
X53583Y-40210D01*
X64633Y-40210D02*
X66773Y-40210D01*
X67590Y-40210D02*
X69150Y-40210D01*
X46850Y-40290D02*
X51973Y-40290D01*
X52338Y-40290D02*
X52462Y-40290D01*
X52827Y-40290D02*
X53608Y-40290D01*
X64633Y-40290D02*
X66858Y-40290D01*
X67670Y-40290D02*
X69150Y-40290D01*
X46850Y-40370D02*
X51559Y-40370D01*
X64633Y-40370D02*
X67070Y-40370D01*
X67750Y-40370D02*
X69150Y-40370D01*
X46850Y-40450D02*
X51479Y-40450D01*
X64633Y-40450D02*
X67150Y-40450D01*
X67830Y-40450D02*
X69150Y-40450D01*
X46850Y-40530D02*
X51399Y-40530D01*
X64680Y-40530D02*
X67230Y-40530D01*
X67910Y-40530D02*
X69150Y-40530D01*
X46850Y-40610D02*
X47560Y-40610D01*
X48590Y-40610D02*
X51319Y-40610D01*
X64760Y-40610D02*
X67310Y-40610D01*
X67990Y-40610D02*
X69150Y-40610D01*
X46850Y-40690D02*
X47560Y-40690D01*
X48590Y-40690D02*
X51239Y-40690D01*
X64840Y-40690D02*
X67390Y-40690D01*
X68070Y-40690D02*
X69150Y-40690D01*
X46850Y-40770D02*
X47390Y-40770D01*
X48590Y-40770D02*
X51159Y-40770D01*
X64920Y-40770D02*
X67470Y-40770D01*
X68150Y-40770D02*
X69150Y-40770D01*
X46850Y-40850D02*
X47390Y-40850D01*
X48590Y-40850D02*
X51079Y-40850D01*
X65000Y-40850D02*
X67550Y-40850D01*
X68230Y-40850D02*
X69150Y-40850D01*
X46850Y-40930D02*
X47390Y-40930D01*
X48590Y-40930D02*
X50999Y-40930D01*
X65080Y-40930D02*
X67630Y-40930D01*
X68310Y-40930D02*
X69150Y-40930D01*
X46850Y-41010D02*
X47390Y-41010D01*
X48590Y-41010D02*
X50919Y-41010D01*
X65160Y-41010D02*
X67710Y-41010D01*
X68390Y-41010D02*
X69150Y-41010D01*
X46850Y-41090D02*
X47390Y-41090D01*
X48590Y-41090D02*
X50839Y-41090D01*
X65240Y-41090D02*
X67790Y-41090D01*
X68470Y-41090D02*
X69150Y-41090D01*
X46850Y-41170D02*
X47390Y-41170D01*
X48590Y-41170D02*
X50759Y-41170D01*
X65320Y-41170D02*
X67870Y-41170D01*
X68550Y-41170D02*
X69150Y-41170D01*
X46850Y-41250D02*
X47390Y-41250D01*
X48590Y-41250D02*
X50679Y-41250D01*
X65400Y-41250D02*
X67950Y-41250D01*
X68630Y-41250D02*
X69150Y-41250D01*
X46850Y-41330D02*
X47390Y-41330D01*
X48590Y-41330D02*
X50599Y-41330D01*
X65480Y-41330D02*
X68030Y-41330D01*
X68710Y-41330D02*
X69150Y-41330D01*
X46850Y-41410D02*
X47390Y-41410D01*
X48590Y-41410D02*
X50519Y-41410D01*
X65560Y-41410D02*
X68110Y-41410D01*
X68770Y-41410D02*
X69150Y-41410D01*
X46850Y-41490D02*
X47390Y-41490D01*
X48590Y-41490D02*
X50439Y-41490D01*
X65640Y-41490D02*
X68190Y-41490D01*
X68795Y-41490D02*
X69150Y-41490D01*
X46850Y-41570D02*
X47390Y-41570D01*
X48590Y-41570D02*
X50359Y-41570D01*
X65720Y-41570D02*
X68270Y-41570D01*
X68800Y-41570D02*
X69150Y-41570D01*
X46850Y-41650D02*
X47390Y-41650D01*
X48590Y-41650D02*
X50279Y-41650D01*
X65800Y-41650D02*
X68320Y-41650D01*
X68800Y-41650D02*
X69150Y-41650D01*
X46850Y-41730D02*
X47390Y-41730D01*
X48590Y-41730D02*
X50199Y-41730D01*
X65880Y-41730D02*
X68320Y-41730D01*
X68800Y-41730D02*
X69150Y-41730D01*
X46850Y-41810D02*
X47390Y-41810D01*
X48590Y-41810D02*
X50119Y-41810D01*
X65960Y-41810D02*
X68320Y-41810D01*
X68800Y-41810D02*
X69150Y-41810D01*
X46850Y-41890D02*
X47390Y-41890D01*
X48590Y-41890D02*
X50110Y-41890D01*
X66040Y-41890D02*
X68320Y-41890D01*
X68800Y-41890D02*
X69150Y-41890D01*
X46850Y-41970D02*
X47390Y-41970D01*
X48590Y-41970D02*
X50110Y-41970D01*
X66120Y-41970D02*
X68320Y-41970D01*
X68800Y-41970D02*
X69150Y-41970D01*
X46850Y-42050D02*
X47390Y-42050D01*
X48590Y-42050D02*
X50110Y-42050D01*
X66200Y-42050D02*
X68320Y-42050D01*
X68800Y-42050D02*
X69150Y-42050D01*
X46850Y-42130D02*
X47390Y-42130D01*
X48590Y-42130D02*
X50110Y-42130D01*
X66280Y-42130D02*
X68320Y-42130D01*
X68800Y-42130D02*
X69150Y-42130D01*
X46850Y-42210D02*
X47390Y-42210D01*
X48590Y-42210D02*
X50110Y-42210D01*
X68800Y-42210D02*
X69150Y-42210D01*
X46850Y-42290D02*
X47390Y-42290D01*
X48590Y-42290D02*
X50110Y-42290D01*
X68800Y-42290D02*
X69150Y-42290D01*
X46850Y-42370D02*
X47390Y-42370D01*
X48590Y-42370D02*
X50110Y-42370D01*
X68800Y-42370D02*
X69150Y-42370D01*
X46850Y-42450D02*
X47390Y-42450D01*
X48590Y-42450D02*
X50110Y-42450D01*
X68800Y-42450D02*
X69150Y-42450D01*
X46850Y-42530D02*
X47390Y-42530D01*
X48590Y-42530D02*
X50110Y-42530D01*
X68800Y-42530D02*
X69150Y-42530D01*
X46850Y-42610D02*
X47390Y-42610D01*
X48590Y-42610D02*
X50110Y-42610D01*
X68800Y-42610D02*
X69150Y-42610D01*
X46850Y-42690D02*
X47390Y-42690D01*
X48590Y-42690D02*
X50110Y-42690D01*
X68800Y-42690D02*
X69150Y-42690D01*
X46850Y-42770D02*
X47390Y-42770D01*
X48590Y-42770D02*
X50110Y-42770D01*
X68800Y-42770D02*
X69150Y-42770D01*
X46850Y-42850D02*
X47390Y-42850D01*
X48590Y-42850D02*
X50110Y-42850D01*
X68800Y-42850D02*
X69150Y-42850D01*
X46850Y-42930D02*
X47390Y-42930D01*
X48590Y-42930D02*
X50110Y-42930D01*
X68800Y-42930D02*
X69150Y-42930D01*
X46850Y-43010D02*
X47390Y-43010D01*
X48590Y-43010D02*
X50110Y-43010D01*
X68800Y-43010D02*
X69150Y-43010D01*
X46850Y-43090D02*
X47390Y-43090D01*
X48590Y-43090D02*
X50110Y-43090D01*
X68800Y-43090D02*
X69150Y-43090D01*
X46850Y-43170D02*
X47390Y-43170D01*
X48590Y-43170D02*
X50110Y-43170D01*
X68800Y-43170D02*
X69150Y-43170D01*
X46850Y-43250D02*
X47390Y-43250D01*
X48590Y-43250D02*
X50110Y-43250D01*
X68800Y-43250D02*
X69150Y-43250D01*
X46850Y-43330D02*
X47390Y-43330D01*
X48590Y-43330D02*
X50110Y-43330D01*
X68800Y-43330D02*
X69150Y-43330D01*
X46850Y-43410D02*
X47390Y-43410D01*
X48590Y-43410D02*
X50110Y-43410D01*
X68800Y-43410D02*
X69150Y-43410D01*
X46850Y-43490D02*
X47390Y-43490D01*
X48590Y-43490D02*
X50110Y-43490D01*
X68800Y-43490D02*
X69150Y-43490D01*
X46850Y-43570D02*
X47390Y-43570D01*
X48590Y-43570D02*
X50110Y-43570D01*
X68800Y-43570D02*
X69150Y-43570D01*
X46850Y-43650D02*
X47390Y-43650D01*
X48590Y-43650D02*
X50110Y-43650D01*
X68800Y-43650D02*
X69150Y-43650D01*
X46850Y-43730D02*
X47390Y-43730D01*
X48590Y-43730D02*
X50110Y-43730D01*
X68790Y-43730D02*
X69150Y-43730D01*
X46850Y-43810D02*
X47390Y-43810D01*
X48590Y-43810D02*
X50110Y-43810D01*
X68756Y-43810D02*
X69150Y-43810D01*
X46850Y-43890D02*
X47390Y-43890D01*
X48590Y-43890D02*
X50110Y-43890D01*
X68689Y-43890D02*
X69150Y-43890D01*
X46850Y-43970D02*
X47390Y-43970D01*
X48590Y-43970D02*
X50110Y-43970D01*
X68609Y-43970D02*
X69150Y-43970D01*
X46850Y-44050D02*
X47390Y-44050D01*
X48590Y-44050D02*
X50110Y-44050D01*
X68529Y-44050D02*
X69150Y-44050D01*
X46850Y-44130D02*
X47390Y-44130D01*
X48590Y-44130D02*
X50110Y-44130D01*
X68449Y-44130D02*
X69150Y-44130D01*
X46850Y-44210D02*
X47390Y-44210D01*
X48590Y-44210D02*
X50110Y-44210D01*
X68369Y-44210D02*
X69150Y-44210D01*
X46850Y-44290D02*
X47390Y-44290D01*
X48590Y-44290D02*
X50110Y-44290D01*
X68289Y-44290D02*
X69150Y-44290D01*
X46850Y-44370D02*
X47390Y-44370D01*
X48590Y-44370D02*
X50056Y-44370D01*
X68289Y-44370D02*
X69150Y-44370D01*
X46850Y-44450D02*
X47390Y-44450D01*
X48590Y-44450D02*
X49992Y-44450D01*
X68289Y-44450D02*
X69150Y-44450D01*
X46850Y-44530D02*
X47390Y-44530D01*
X48590Y-44530D02*
X49928Y-44530D01*
X68288Y-44530D02*
X69150Y-44530D01*
X46850Y-44610D02*
X47390Y-44610D01*
X48590Y-44610D02*
X49864Y-44610D01*
X68288Y-44610D02*
X69150Y-44610D01*
X46850Y-44690D02*
X47390Y-44690D01*
X48590Y-44690D02*
X49159Y-44690D01*
X68287Y-44690D02*
X69150Y-44690D01*
X46850Y-44770D02*
X47390Y-44770D01*
X48590Y-44770D02*
X49079Y-44770D01*
X68287Y-44770D02*
X69150Y-44770D01*
X46850Y-44850D02*
X47390Y-44850D01*
X48590Y-44850D02*
X48999Y-44850D01*
X68287Y-44850D02*
X69150Y-44850D01*
X46850Y-44930D02*
X47390Y-44930D01*
X48590Y-44930D02*
X48990Y-44930D01*
X68286Y-44930D02*
X69150Y-44930D01*
X46850Y-45010D02*
X47390Y-45010D01*
X48590Y-45010D02*
X48989Y-45010D01*
X68286Y-45010D02*
X69150Y-45010D01*
X46850Y-45090D02*
X47390Y-45090D01*
X48590Y-45090D02*
X48988Y-45090D01*
X68285Y-45090D02*
X69150Y-45090D01*
X46850Y-45170D02*
X47560Y-45170D01*
X48590Y-45170D02*
X48987Y-45170D01*
X68285Y-45170D02*
X69150Y-45170D01*
X46850Y-45250D02*
X48986Y-45250D01*
X68285Y-45250D02*
X69150Y-45250D01*
X46850Y-45330D02*
X48985Y-45330D01*
X68284Y-45330D02*
X69150Y-45330D01*
X46850Y-45410D02*
X47688Y-45410D01*
X47848Y-45410D02*
X48042Y-45410D01*
X48203Y-45410D02*
X48984Y-45410D01*
X68284Y-45410D02*
X69150Y-45410D01*
X46850Y-45490D02*
X47573Y-45490D01*
X47895Y-45490D02*
X47995Y-45490D01*
X48317Y-45490D02*
X48394Y-45490D01*
X68284Y-45490D02*
X69150Y-45490D01*
X46850Y-45570D02*
X47532Y-45570D01*
X47895Y-45570D02*
X47995Y-45570D01*
X68284Y-45570D02*
X69150Y-45570D01*
X46850Y-45650D02*
X47521Y-45650D01*
X47895Y-45650D02*
X47995Y-45650D01*
X68284Y-45650D02*
X69150Y-45650D01*
X46850Y-45730D02*
X47521Y-45730D01*
X47895Y-45730D02*
X47995Y-45730D01*
X68284Y-45730D02*
X69150Y-45730D01*
X46850Y-45810D02*
X47522Y-45810D01*
X47895Y-45810D02*
X47995Y-45810D01*
X68284Y-45810D02*
X69150Y-45810D01*
X46850Y-45890D02*
X47995Y-45890D01*
X68284Y-45890D02*
X69150Y-45890D01*
X46850Y-45970D02*
X47582Y-45970D01*
X47895Y-45970D02*
X47995Y-45970D01*
X68285Y-45970D02*
X69150Y-45970D01*
X46850Y-46050D02*
X47520Y-46050D01*
X47895Y-46050D02*
X47995Y-46050D01*
X68287Y-46050D02*
X69150Y-46050D01*
X46850Y-46130D02*
X47520Y-46130D01*
X47895Y-46130D02*
X47995Y-46130D01*
X68289Y-46130D02*
X69150Y-46130D01*
X46850Y-46210D02*
X47520Y-46210D01*
X47895Y-46210D02*
X47995Y-46210D01*
X68352Y-46210D02*
X69150Y-46210D01*
X46850Y-46290D02*
X47539Y-46290D01*
X47895Y-46290D02*
X47995Y-46290D01*
X68454Y-46290D02*
X69150Y-46290D01*
X46850Y-46370D02*
X47593Y-46370D01*
X47895Y-46370D02*
X47995Y-46370D01*
X48297Y-46370D02*
X48423Y-46370D01*
X48967Y-46370D02*
X48982Y-46370D01*
X68534Y-46370D02*
X69150Y-46370D01*
X46850Y-46450D02*
X48982Y-46450D01*
X68614Y-46450D02*
X69150Y-46450D01*
X46850Y-46530D02*
X48982Y-46530D01*
X68689Y-46530D02*
X69150Y-46530D01*
X46850Y-46610D02*
X48983Y-46610D01*
X68743Y-46610D02*
X69150Y-46610D01*
X46850Y-46690D02*
X48983Y-46690D01*
X68759Y-46690D02*
X69150Y-46690D01*
X46850Y-46770D02*
X48983Y-46770D01*
X68766Y-46770D02*
X69150Y-46770D01*
X46850Y-46850D02*
X48984Y-46850D01*
X68766Y-46850D02*
X69150Y-46850D01*
X46850Y-46930D02*
X48984Y-46930D01*
X68766Y-46930D02*
X69150Y-46930D01*
X46850Y-47010D02*
X47622Y-47010D01*
X48020Y-47010D02*
X48131Y-47010D01*
X48503Y-47010D02*
X48623Y-47010D01*
X68767Y-47010D02*
X69150Y-47010D01*
X46850Y-47090D02*
X47505Y-47090D01*
X68800Y-47090D02*
X69150Y-47090D01*
X46850Y-47170D02*
X47471Y-47170D01*
X68817Y-47170D02*
X69150Y-47170D01*
X46850Y-47250D02*
X47471Y-47250D01*
X68817Y-47250D02*
X69150Y-47250D01*
X46850Y-47330D02*
X47471Y-47330D01*
X68791Y-47330D02*
X69150Y-47330D01*
X46850Y-47410D02*
X47471Y-47410D01*
X68745Y-47410D02*
X69150Y-47410D01*
X46850Y-47490D02*
X47438Y-47490D01*
X68666Y-47490D02*
X69150Y-47490D01*
X46850Y-47570D02*
X47422Y-47570D01*
X68585Y-47570D02*
X69150Y-47570D01*
X46850Y-47650D02*
X47870Y-47650D01*
X68504Y-47650D02*
X69150Y-47650D01*
X46850Y-47730D02*
X47482Y-47730D01*
X68423Y-47730D02*
X69150Y-47730D01*
X46850Y-47810D02*
X47420Y-47810D01*
X68342Y-47810D02*
X69150Y-47810D01*
X46850Y-47890D02*
X47446Y-47890D01*
X68261Y-47890D02*
X69150Y-47890D01*
X46850Y-47970D02*
X47471Y-47970D01*
X68180Y-47970D02*
X69150Y-47970D01*
X46850Y-48050D02*
X47471Y-48050D01*
X68127Y-48050D02*
X69150Y-48050D01*
X46850Y-48130D02*
X47471Y-48130D01*
X68160Y-48130D02*
X69150Y-48130D01*
X46850Y-48210D02*
X47477Y-48210D01*
X68177Y-48210D02*
X69150Y-48210D01*
X46850Y-48290D02*
X47524Y-48290D01*
X68177Y-48290D02*
X69150Y-48290D01*
X46850Y-48370D02*
X47920Y-48370D01*
X68151Y-48370D02*
X69150Y-48370D01*
X46850Y-48450D02*
X47920Y-48450D01*
X68127Y-48450D02*
X69150Y-48450D01*
X46850Y-48530D02*
X47929Y-48530D01*
X68127Y-48530D02*
X69150Y-48530D01*
X46850Y-48610D02*
X47945Y-48610D01*
X68127Y-48610D02*
X69150Y-48610D01*
X46850Y-48690D02*
X47988Y-48690D01*
X68127Y-48690D02*
X69150Y-48690D01*
X46850Y-48770D02*
X48044Y-48770D01*
X68127Y-48770D02*
X69150Y-48770D01*
X46850Y-48850D02*
X48124Y-48850D01*
X68127Y-48850D02*
X69150Y-48850D01*
X46850Y-48930D02*
X47688Y-48930D01*
X47848Y-48930D02*
X48042Y-48930D01*
X68127Y-48930D02*
X69150Y-48930D01*
X46850Y-49010D02*
X47573Y-49010D01*
X47895Y-49010D02*
X47995Y-49010D01*
X68127Y-49010D02*
X69150Y-49010D01*
X46850Y-49090D02*
X47532Y-49090D01*
X47895Y-49090D02*
X47995Y-49090D01*
X68127Y-49090D02*
X69150Y-49090D01*
X46850Y-49170D02*
X47521Y-49170D01*
X47895Y-49170D02*
X47995Y-49170D01*
X68127Y-49170D02*
X69150Y-49170D01*
X46850Y-49250D02*
X47521Y-49250D01*
X47895Y-49250D02*
X47995Y-49250D01*
X68127Y-49250D02*
X69150Y-49250D01*
X46850Y-49330D02*
X47522Y-49330D01*
X47895Y-49330D02*
X47995Y-49330D01*
X68130Y-49330D02*
X69150Y-49330D01*
X46850Y-49410D02*
X47995Y-49410D01*
X68154Y-49410D02*
X69150Y-49410D01*
X46850Y-49490D02*
X47582Y-49490D01*
X47895Y-49490D02*
X47995Y-49490D01*
X68160Y-49490D02*
X69150Y-49490D01*
X46850Y-49570D02*
X47520Y-49570D01*
X47895Y-49570D02*
X47995Y-49570D01*
X68160Y-49570D02*
X69150Y-49570D01*
X46850Y-49650D02*
X47520Y-49650D01*
X47895Y-49650D02*
X47995Y-49650D01*
X68160Y-49650D02*
X69150Y-49650D01*
X46850Y-49730D02*
X47520Y-49730D01*
X47895Y-49730D02*
X47995Y-49730D01*
X68160Y-49730D02*
X69150Y-49730D01*
X46850Y-49810D02*
X47539Y-49810D01*
X47895Y-49810D02*
X47995Y-49810D01*
X68160Y-49810D02*
X69150Y-49810D01*
X46850Y-49890D02*
X47593Y-49890D01*
X47895Y-49890D02*
X47995Y-49890D01*
X48297Y-49890D02*
X48423Y-49890D01*
X48967Y-49890D02*
X48982Y-49890D01*
X68160Y-49890D02*
X69150Y-49890D01*
X46850Y-49970D02*
X48982Y-49970D01*
X68160Y-49970D02*
X69150Y-49970D01*
X46850Y-50050D02*
X48982Y-50050D01*
X68160Y-50050D02*
X69150Y-50050D01*
X46850Y-50130D02*
X48982Y-50130D01*
X68160Y-50130D02*
X69150Y-50130D01*
X46850Y-50210D02*
X48983Y-50210D01*
X68207Y-50210D02*
X69150Y-50210D01*
X46850Y-50290D02*
X48983Y-50290D01*
X68240Y-50290D02*
X69150Y-50290D01*
X46850Y-50370D02*
X48983Y-50370D01*
X68257Y-50370D02*
X69150Y-50370D01*
X46850Y-50450D02*
X48983Y-50450D01*
X68257Y-50450D02*
X69150Y-50450D01*
X46850Y-50530D02*
X48984Y-50530D01*
X68231Y-50530D02*
X69150Y-50530D01*
X46850Y-50610D02*
X48984Y-50610D01*
X68186Y-50610D02*
X69150Y-50610D01*
X46850Y-50690D02*
X48984Y-50690D01*
X68130Y-50690D02*
X69150Y-50690D01*
X46850Y-50770D02*
X48984Y-50770D01*
X68130Y-50770D02*
X69150Y-50770D01*
X46850Y-50850D02*
X48985Y-50850D01*
X68097Y-50850D02*
X69150Y-50850D01*
X46850Y-50930D02*
X48985Y-50930D01*
X68001Y-50930D02*
X69150Y-50930D01*
X46850Y-51010D02*
X48985Y-51010D01*
X67905Y-51010D02*
X69150Y-51010D01*
X46850Y-51090D02*
X48985Y-51090D01*
X67809Y-51090D02*
X69150Y-51090D01*
X46850Y-51170D02*
X48986Y-51170D01*
X67713Y-51170D02*
X69150Y-51170D01*
X46850Y-51250D02*
X48986Y-51250D01*
X67650Y-51250D02*
X69150Y-51250D01*
X46850Y-51330D02*
X48986Y-51330D01*
X67650Y-51330D02*
X69150Y-51330D01*
X46850Y-51410D02*
X48986Y-51410D01*
X67650Y-51410D02*
X69150Y-51410D01*
X46850Y-51490D02*
X48987Y-51490D01*
X67650Y-51490D02*
X69150Y-51490D01*
X46850Y-51570D02*
X48987Y-51570D01*
X67650Y-51570D02*
X69150Y-51570D01*
X46850Y-51650D02*
X48987Y-51650D01*
X67650Y-51650D02*
X69150Y-51650D01*
X46850Y-51730D02*
X48987Y-51730D01*
X67650Y-51730D02*
X69150Y-51730D01*
X46850Y-51810D02*
X48988Y-51810D01*
X67650Y-51810D02*
X69150Y-51810D01*
X46850Y-51890D02*
X48988Y-51890D01*
X67650Y-51890D02*
X69150Y-51890D01*
X46850Y-51970D02*
X48988Y-51970D01*
X67650Y-51970D02*
X69150Y-51970D01*
X46850Y-52050D02*
X48988Y-52050D01*
X67650Y-52050D02*
X69150Y-52050D01*
X46850Y-52130D02*
X48989Y-52130D01*
X67650Y-52130D02*
X69150Y-52130D01*
X46850Y-52210D02*
X48989Y-52210D01*
X67650Y-52210D02*
X69150Y-52210D01*
X46850Y-52290D02*
X48989Y-52290D01*
X67650Y-52290D02*
X69150Y-52290D01*
X46850Y-52370D02*
X48989Y-52370D01*
X67650Y-52370D02*
X69150Y-52370D01*
X69150Y-52430D02*
X69150Y-37650D01*
X46850Y-37650D01*
X46850Y-52430D01*
X47833Y-52430D01*
X47833Y-49965D01*
X47721Y-49964D01*
X47629Y-49926D01*
X47559Y-49856D01*
X47521Y-49765D01*
X47520Y-49552D01*
X47582Y-49490D01*
X47582Y-49390D01*
X47520Y-49328D01*
X47521Y-49115D01*
X47559Y-49024D01*
X47629Y-48954D01*
X47721Y-48916D01*
X47833Y-48915D01*
X47895Y-48977D01*
X47895Y-49390D01*
X47582Y-49390D01*
X47582Y-49490D01*
X47895Y-49490D01*
X47895Y-49903D01*
X47833Y-49965D01*
X47833Y-52430D01*
X48990Y-52430D01*
X48982Y-49884D01*
X48909Y-49914D01*
X48480Y-49914D01*
X48407Y-49883D01*
X48351Y-49827D01*
X48331Y-49856D01*
X48261Y-49926D01*
X48169Y-49964D01*
X48057Y-49965D01*
X47995Y-49903D01*
X47995Y-49490D01*
X47995Y-49390D01*
X47995Y-48977D01*
X48057Y-48915D01*
X48169Y-48916D01*
X48204Y-48930D01*
X48037Y-48763D01*
X47950Y-48633D01*
X47920Y-48480D01*
X47920Y-48354D01*
X47630Y-48354D01*
X47557Y-48323D01*
X47501Y-48267D01*
X47471Y-48194D01*
X47471Y-47933D01*
X47459Y-47921D01*
X47421Y-47829D01*
X47420Y-47792D01*
X47482Y-47730D01*
X47770Y-47730D01*
X47870Y-47730D01*
X47870Y-47630D01*
X47770Y-47630D01*
X47482Y-47630D01*
X47420Y-47568D01*
X47421Y-47531D01*
X47459Y-47439D01*
X47471Y-47427D01*
X47471Y-47165D01*
X47502Y-47092D01*
X47560Y-47035D01*
X47631Y-47006D01*
X47833Y-47006D01*
X47833Y-46445D01*
X47721Y-46444D01*
X47629Y-46406D01*
X47559Y-46336D01*
X47521Y-46245D01*
X47520Y-46032D01*
X47582Y-45970D01*
X47582Y-45870D01*
X47520Y-45808D01*
X47521Y-45595D01*
X47560Y-45503D01*
X47560Y-45189D01*
X47560Y-45170D01*
X47390Y-45170D01*
X47390Y-40750D01*
X47560Y-40750D01*
X47560Y-40571D01*
X48003Y-40571D01*
X48003Y-40083D01*
X47783Y-39992D01*
X47614Y-39823D01*
X47523Y-39603D01*
X47523Y-39365D01*
X47614Y-39145D01*
X47783Y-38976D01*
X48003Y-38885D01*
X48149Y-38885D01*
X48109Y-38854D01*
X48005Y-38671D01*
X47988Y-38634D01*
X48036Y-38550D01*
X48036Y-38450D01*
X47988Y-38366D01*
X48005Y-38329D01*
X48109Y-38146D01*
X48276Y-38017D01*
X48479Y-37962D01*
X48564Y-38025D01*
X48564Y-38450D01*
X48036Y-38450D01*
X48036Y-38550D01*
X48564Y-38550D01*
X48564Y-38975D01*
X48504Y-39019D01*
X48630Y-39145D01*
X48721Y-39365D01*
X48721Y-39603D01*
X48630Y-39823D01*
X48461Y-39992D01*
X48241Y-40083D01*
X48003Y-40083D01*
X48003Y-40571D01*
X48590Y-40571D01*
X48590Y-45189D01*
X47560Y-45189D01*
X47560Y-45503D01*
X47629Y-45434D01*
X47721Y-45396D01*
X47833Y-45395D01*
X47895Y-45457D01*
X47895Y-45870D01*
X47582Y-45870D01*
X47582Y-45970D01*
X47895Y-45970D01*
X47895Y-46383D01*
X47833Y-46445D01*
X47833Y-47006D01*
X48010Y-47006D01*
X48042Y-47020D01*
X48113Y-47020D01*
X48167Y-46990D01*
X48320Y-46960D01*
X48473Y-46990D01*
X48551Y-47042D01*
X48631Y-47006D01*
X48985Y-47006D01*
X48982Y-46364D01*
X48909Y-46394D01*
X48480Y-46394D01*
X48407Y-46363D01*
X48351Y-46307D01*
X48331Y-46336D01*
X48261Y-46406D01*
X48169Y-46444D01*
X48057Y-46445D01*
X47995Y-46383D01*
X47995Y-45970D01*
X47995Y-45870D01*
X47995Y-45457D01*
X48057Y-45395D01*
X48169Y-45396D01*
X48261Y-45434D01*
X48331Y-45504D01*
X48352Y-45532D01*
X48408Y-45476D01*
X48481Y-45446D01*
X48749Y-45446D01*
X48749Y-39038D01*
X48664Y-38975D01*
X48664Y-38550D01*
X48664Y-38450D01*
X48664Y-38025D01*
X48749Y-37962D01*
X48952Y-38017D01*
X49119Y-38146D01*
X49223Y-38329D01*
X49240Y-38366D01*
X49192Y-38450D01*
X48664Y-38450D01*
X48664Y-38550D01*
X49192Y-38550D01*
X49240Y-38634D01*
X49223Y-38671D01*
X49119Y-38854D01*
X48952Y-38983D01*
X48749Y-39038D01*
X48749Y-45446D01*
X48910Y-45446D01*
X48983Y-45477D01*
X48990Y-44859D01*
X49179Y-44670D01*
X49287Y-44670D01*
X49361Y-44641D01*
X49520Y-44641D01*
X49593Y-44670D01*
X49815Y-44670D01*
X50110Y-44302D01*
X50110Y-41819D01*
X50759Y-41169D01*
X50759Y-40083D01*
X50539Y-39992D01*
X50370Y-39823D01*
X50279Y-39603D01*
X50279Y-39365D01*
X50370Y-39145D01*
X50539Y-38976D01*
X50180Y-38986D01*
X50001Y-38912D01*
X49865Y-38775D01*
X49791Y-38596D01*
X49791Y-38403D01*
X49865Y-38224D01*
X50002Y-38088D01*
X50181Y-38014D01*
X50592Y-38014D01*
X50771Y-38088D01*
X50907Y-38225D01*
X50981Y-38404D01*
X50981Y-38597D01*
X50907Y-38776D01*
X50797Y-38885D01*
X50997Y-38885D01*
X51217Y-38976D01*
X51386Y-39145D01*
X51477Y-39365D01*
X51477Y-39603D01*
X51386Y-39823D01*
X51217Y-39992D01*
X50997Y-40083D01*
X50759Y-40083D01*
X50759Y-41169D01*
X51579Y-40350D01*
X51914Y-40349D01*
X51984Y-40279D01*
X52075Y-40241D01*
X52288Y-40240D01*
X52350Y-40302D01*
X52350Y-40349D01*
X52450Y-40349D01*
X52450Y-40302D01*
X52512Y-40240D01*
X52725Y-40241D01*
X52816Y-40279D01*
X52886Y-40349D01*
X53003Y-40350D01*
X53003Y-40083D01*
X52783Y-39992D01*
X52614Y-39823D01*
X52523Y-39603D01*
X52523Y-39365D01*
X52614Y-39145D01*
X52783Y-38976D01*
X53003Y-38885D01*
X53149Y-38885D01*
X53109Y-38854D01*
X53005Y-38671D01*
X52988Y-38634D01*
X53036Y-38550D01*
X53036Y-38450D01*
X52988Y-38366D01*
X53005Y-38329D01*
X53109Y-38146D01*
X53276Y-38017D01*
X53479Y-37962D01*
X53564Y-38025D01*
X53564Y-38450D01*
X53036Y-38450D01*
X53036Y-38550D01*
X53564Y-38550D01*
X53564Y-38975D01*
X53504Y-39019D01*
X53630Y-39145D01*
X53721Y-39365D01*
X53721Y-39603D01*
X53630Y-39823D01*
X53461Y-39992D01*
X53241Y-40083D01*
X53003Y-40083D01*
X53003Y-40350D01*
X53634Y-40351D01*
X53583Y-40227D01*
X53583Y-40093D01*
X53634Y-39969D01*
X53729Y-39874D01*
X53749Y-39865D01*
X53749Y-39038D01*
X53664Y-38975D01*
X53664Y-38550D01*
X53664Y-38450D01*
X53664Y-38025D01*
X53749Y-37962D01*
X53952Y-38017D01*
X54119Y-38146D01*
X54223Y-38329D01*
X54240Y-38366D01*
X54192Y-38450D01*
X53664Y-38450D01*
X53664Y-38550D01*
X54192Y-38550D01*
X54240Y-38634D01*
X54223Y-38671D01*
X54119Y-38854D01*
X53952Y-38983D01*
X53749Y-39038D01*
X53749Y-39865D01*
X53853Y-39823D01*
X53987Y-39823D01*
X54111Y-39874D01*
X54936Y-38847D01*
X54865Y-38775D01*
X54791Y-38596D01*
X54791Y-38403D01*
X54865Y-38224D01*
X55002Y-38088D01*
X55181Y-38014D01*
X55592Y-38014D01*
X55630Y-38030D01*
X57259Y-38030D01*
X57419Y-37870D01*
X58580Y-37870D01*
X58740Y-38030D01*
X60264Y-38025D01*
X60276Y-38017D01*
X60479Y-37962D01*
X60564Y-38025D01*
X60664Y-38025D01*
X60749Y-37962D01*
X60952Y-38017D01*
X60963Y-38026D01*
X62142Y-38030D01*
X62181Y-38014D01*
X62592Y-38014D01*
X62771Y-38088D01*
X62907Y-38225D01*
X62981Y-38404D01*
X62981Y-38597D01*
X62912Y-38762D01*
X63061Y-38911D01*
X63217Y-38976D01*
X63386Y-39145D01*
X63450Y-39300D01*
X63958Y-39808D01*
X64474Y-39808D01*
X64547Y-39839D01*
X64603Y-39895D01*
X64633Y-39968D01*
X64633Y-40483D01*
X65003Y-40853D01*
X65003Y-40083D01*
X64783Y-39992D01*
X64614Y-39823D01*
X64523Y-39603D01*
X64523Y-39365D01*
X64614Y-39145D01*
X64783Y-38976D01*
X65003Y-38885D01*
X65149Y-38885D01*
X65109Y-38854D01*
X65005Y-38671D01*
X64988Y-38634D01*
X65036Y-38550D01*
X65036Y-38450D01*
X64988Y-38366D01*
X65005Y-38329D01*
X65109Y-38146D01*
X65276Y-38017D01*
X65479Y-37962D01*
X65564Y-38025D01*
X65564Y-38450D01*
X65036Y-38450D01*
X65036Y-38550D01*
X65564Y-38550D01*
X65564Y-38975D01*
X65504Y-39019D01*
X65630Y-39145D01*
X65721Y-39365D01*
X65721Y-39603D01*
X65630Y-39823D01*
X65461Y-39992D01*
X65241Y-40083D01*
X65003Y-40083D01*
X65003Y-40853D01*
X65749Y-41599D01*
X65749Y-39038D01*
X65664Y-38975D01*
X65664Y-38550D01*
X65664Y-38450D01*
X65664Y-38025D01*
X65749Y-37962D01*
X65952Y-38017D01*
X66119Y-38146D01*
X66223Y-38329D01*
X66240Y-38366D01*
X66192Y-38450D01*
X65664Y-38450D01*
X65664Y-38550D01*
X66192Y-38550D01*
X66240Y-38634D01*
X66223Y-38671D01*
X66119Y-38854D01*
X65952Y-38983D01*
X65749Y-39038D01*
X65749Y-41599D01*
X66340Y-42190D01*
X67606Y-42194D01*
X68320Y-42190D01*
X68320Y-41619D01*
X67037Y-40337D01*
X66973Y-40337D01*
X66849Y-40286D01*
X66754Y-40191D01*
X66703Y-40067D01*
X66703Y-39933D01*
X66754Y-39809D01*
X66849Y-39714D01*
X66973Y-39663D01*
X67107Y-39663D01*
X67231Y-39714D01*
X67326Y-39809D01*
X67377Y-39933D01*
X67377Y-39997D01*
X67759Y-40379D01*
X67759Y-40083D01*
X67539Y-39992D01*
X67370Y-39823D01*
X67279Y-39603D01*
X67279Y-39365D01*
X67370Y-39145D01*
X67539Y-38976D01*
X67180Y-38986D01*
X67001Y-38912D01*
X66865Y-38775D01*
X66791Y-38596D01*
X66791Y-38403D01*
X66865Y-38224D01*
X67002Y-38088D01*
X67181Y-38014D01*
X67592Y-38014D01*
X67771Y-38088D01*
X67907Y-38225D01*
X67981Y-38404D01*
X67981Y-38597D01*
X67907Y-38776D01*
X67797Y-38885D01*
X67997Y-38885D01*
X68217Y-38976D01*
X68386Y-39145D01*
X68477Y-39365D01*
X68477Y-39603D01*
X68386Y-39823D01*
X68217Y-39992D01*
X67997Y-40083D01*
X67759Y-40083D01*
X67759Y-40379D01*
X68729Y-41350D01*
X68782Y-41428D01*
X68800Y-41520D01*
X68800Y-43680D01*
X68782Y-43772D01*
X68729Y-43850D01*
X68290Y-44289D01*
X68284Y-45481D01*
X68284Y-45929D01*
X68290Y-46185D01*
X68324Y-46192D01*
X68417Y-46253D01*
X68681Y-46518D01*
X68743Y-46611D01*
X68765Y-46720D01*
X68766Y-47009D01*
X68817Y-47133D01*
X68817Y-47267D01*
X68766Y-47391D01*
X68690Y-47460D01*
X68671Y-47486D01*
X68130Y-48020D01*
X68126Y-48049D01*
X68177Y-48173D01*
X68177Y-48307D01*
X68126Y-48431D01*
X68127Y-49327D01*
X68141Y-49347D01*
X68160Y-49440D01*
X68160Y-50163D01*
X68206Y-50209D01*
X68257Y-50333D01*
X68257Y-50467D01*
X68206Y-50591D01*
X68129Y-50667D01*
X68130Y-50823D01*
X67650Y-51223D01*
X67650Y-52430D01*
X69150Y-52430D01*
M02*
