G04 (created by PCBNEW-RS274X (20091028 SVN-R2058)) date Tue 10 Nov 2009 22:53:44 CET*
G01*
G70*
G90*
%MOIN*%
G04 Gerber Fmt 3.4, Leading zero omitted, Abs format*
%FSLAX34Y34*%
G04 APERTURE LIST*
%ADD10C,0.001000*%
%ADD11C,0.063000*%
%ADD12R,0.086700X0.078700*%
%ADD13R,0.045800X0.035800*%
%ADD14R,0.070800X0.050800*%
%ADD15R,0.050800X0.070800*%
%ADD16R,0.055800X0.055800*%
%ADD17C,0.055800*%
%ADD18O,0.094500X0.074900*%
%ADD19C,0.095800*%
%ADD20R,0.031500X0.051200*%
%ADD21O,0.075800X0.265800*%
%ADD22R,2.215800X0.315800*%
%ADD23R,0.075800X0.025800*%
%ADD24R,0.025800X0.075800*%
%ADD25R,0.026800X0.075800*%
G04 APERTURE END LIST*
G54D10*
G54D11*
X66160Y-43760D03*
X67440Y-43760D03*
G54D12*
X64080Y-40321D03*
X64080Y-41439D03*
G54D13*
X47820Y-47305D03*
X47820Y-48055D03*
X48820Y-47305D03*
X47820Y-47680D03*
X48820Y-48055D03*
G54D14*
X67760Y-45705D03*
X67760Y-46455D03*
X52400Y-40665D03*
X52400Y-41415D03*
G54D15*
X48695Y-49440D03*
X47945Y-49440D03*
X48695Y-45920D03*
X47945Y-45920D03*
G54D16*
X68050Y-42640D03*
G54D17*
X67550Y-42640D03*
X67050Y-42640D03*
X66550Y-42640D03*
X66050Y-42640D03*
X65550Y-42640D03*
G54D18*
X48614Y-38500D03*
X50386Y-38500D03*
G54D19*
X50878Y-39484D03*
X48122Y-39484D03*
G54D18*
X53614Y-38500D03*
X55386Y-38500D03*
G54D19*
X55878Y-39484D03*
X53122Y-39484D03*
G54D18*
X60614Y-38500D03*
X62386Y-38500D03*
G54D19*
X62878Y-39484D03*
X60122Y-39484D03*
G54D18*
X65614Y-38500D03*
X67386Y-38500D03*
G54D19*
X67878Y-39484D03*
X65122Y-39484D03*
G54D20*
X65628Y-51535D03*
X65943Y-51535D03*
X66572Y-51535D03*
X66257Y-51535D03*
X66257Y-50865D03*
X66572Y-50865D03*
X65943Y-50865D03*
X65628Y-50865D03*
X63328Y-51535D03*
X63643Y-51535D03*
X64272Y-51535D03*
X63957Y-51535D03*
X63957Y-50865D03*
X64272Y-50865D03*
X63643Y-50865D03*
X63328Y-50865D03*
G54D21*
X47500Y-54750D03*
X48500Y-54750D03*
X49500Y-54750D03*
X50500Y-54750D03*
X51500Y-54750D03*
X52500Y-54750D03*
X53500Y-54750D03*
X54500Y-54750D03*
X55500Y-54750D03*
X56500Y-54750D03*
X57500Y-54750D03*
X58500Y-54750D03*
X59500Y-54750D03*
X60500Y-54750D03*
X61500Y-54750D03*
X62500Y-54750D03*
X63500Y-54750D03*
X64500Y-54750D03*
X65500Y-54750D03*
X66500Y-54750D03*
X67500Y-54750D03*
X68500Y-54750D03*
X48500Y-54750D03*
X49500Y-54750D03*
X50500Y-54750D03*
X51500Y-54750D03*
X52500Y-54750D03*
X53500Y-54750D03*
X54500Y-54750D03*
X55500Y-54750D03*
X56500Y-54750D03*
X57500Y-54750D03*
X58500Y-54750D03*
X59500Y-54750D03*
X60500Y-54750D03*
X61500Y-54750D03*
X62500Y-54750D03*
X63500Y-54750D03*
X64500Y-54750D03*
X65500Y-54750D03*
X66500Y-54750D03*
X67500Y-54750D03*
X68500Y-54750D03*
G54D22*
X58000Y-55000D03*
G54D11*
X50480Y-51680D03*
G54D23*
X59050Y-48960D03*
X59050Y-44240D03*
X59050Y-44440D03*
X59050Y-44630D03*
X59050Y-44830D03*
X59050Y-45030D03*
X59050Y-45220D03*
X59050Y-45420D03*
X59050Y-45620D03*
X59050Y-45810D03*
X59050Y-46010D03*
X59050Y-46210D03*
X59050Y-46410D03*
X59050Y-46600D03*
X59050Y-46800D03*
X59050Y-47000D03*
X59050Y-47190D03*
X59050Y-47390D03*
X59050Y-47590D03*
X59050Y-47780D03*
X59050Y-47980D03*
X59050Y-48180D03*
X59050Y-48370D03*
X59050Y-48570D03*
X59050Y-48770D03*
G54D24*
X59740Y-43550D03*
X64460Y-43550D03*
X64260Y-43550D03*
X64070Y-43550D03*
X63870Y-43550D03*
X63670Y-43550D03*
X63480Y-43550D03*
X63280Y-43550D03*
X63080Y-43550D03*
X62890Y-43550D03*
X62690Y-43550D03*
X62490Y-43550D03*
X62290Y-43550D03*
X62100Y-43550D03*
X61900Y-43550D03*
X61700Y-43550D03*
X61510Y-43550D03*
X61310Y-43550D03*
X61110Y-43550D03*
X60920Y-43550D03*
X60720Y-43550D03*
X60520Y-43550D03*
X60330Y-43550D03*
X60130Y-43550D03*
X59930Y-43550D03*
X59740Y-49650D03*
X59940Y-49650D03*
X60130Y-49650D03*
X60330Y-49650D03*
X60530Y-49650D03*
X60720Y-49650D03*
X60920Y-49650D03*
X61120Y-49650D03*
X61310Y-49650D03*
X61510Y-49650D03*
X61710Y-49650D03*
X61910Y-49650D03*
X62100Y-49650D03*
X62300Y-49650D03*
X62500Y-49650D03*
X62690Y-49650D03*
X62890Y-49650D03*
X63090Y-49650D03*
X63280Y-49650D03*
X63480Y-49650D03*
X63680Y-49650D03*
X63870Y-49650D03*
X64070Y-49650D03*
X64270Y-49650D03*
X64460Y-49650D03*
G54D23*
X65150Y-48960D03*
X65150Y-48760D03*
X65150Y-48570D03*
X65150Y-48370D03*
X65150Y-48170D03*
X65150Y-47980D03*
X65150Y-47780D03*
X65150Y-47580D03*
X65150Y-47390D03*
X65150Y-47190D03*
X65150Y-46990D03*
X65150Y-46790D03*
X65150Y-46600D03*
X65150Y-46400D03*
X65150Y-46200D03*
X65150Y-46010D03*
X65150Y-45810D03*
X65150Y-45610D03*
X65150Y-45420D03*
X65150Y-45220D03*
X65150Y-45020D03*
X65150Y-44830D03*
X65150Y-44630D03*
X65150Y-44430D03*
X65150Y-44240D03*
G54D25*
X50507Y-42530D03*
X50704Y-42530D03*
X50901Y-42530D03*
X51098Y-42530D03*
X51295Y-42530D03*
X51491Y-42530D03*
X51688Y-42530D03*
X51885Y-42530D03*
X52082Y-42530D03*
X52279Y-42530D03*
X52476Y-42530D03*
X52673Y-42530D03*
X52871Y-42530D03*
X53066Y-42530D03*
X53264Y-42530D03*
X53460Y-42530D03*
X53658Y-42530D03*
X53854Y-42530D03*
X54052Y-42530D03*
X54248Y-42530D03*
X54445Y-42530D03*
X54641Y-42530D03*
X54839Y-42530D03*
X55035Y-42530D03*
X50508Y-50220D03*
X51098Y-50220D03*
X50901Y-50220D03*
X50704Y-50220D03*
X51295Y-50220D03*
X51492Y-50220D03*
X51689Y-50220D03*
X51886Y-50220D03*
X52083Y-50220D03*
X52279Y-50220D03*
X52476Y-50220D03*
X52673Y-50220D03*
X52870Y-50220D03*
X53067Y-50220D03*
X53264Y-50220D03*
X53461Y-50220D03*
X53657Y-50220D03*
X53854Y-50220D03*
X54051Y-50220D03*
X54248Y-50220D03*
X54445Y-50220D03*
X54642Y-50220D03*
X54839Y-50220D03*
X55035Y-50220D03*
M02*
